<svg width="812" height="302" viewBox="0 0 812 302" fill="none" xmlns="http://www.w3.org/2000/svg">
<g clip-path="url(#clip0_131_23150)">
<path d="M456.981 252.65H18.06L66.9672 70.1417C70.5117 56.8967 84.1143 46.17 97.3438 46.17H511.874L456.981 252.65Z" fill="#00B5A6"/>
<path d="M717.716 252.65H456.981L511.874 46.17H797L748.093 228.694C744.548 241.923 730.946 252.65 717.716 252.65Z" fill="#FF9B00"/>
<path d="M85.1869 148.446C85.3436 130.728 92.509 113.792 105.117 101.342C111.753 94.7191 119.64 89.4817 128.319 85.9348C136.998 82.3879 146.296 80.6023 155.672 80.6818C179.55 80.6818 193.915 89.885 201.812 100.207L183.421 116.499C179.759 112.25 175.194 108.873 170.059 106.614C164.925 104.354 159.351 103.27 153.744 103.441C148.222 103.46 142.759 104.568 137.666 106.703C132.574 108.837 127.953 111.955 124.067 115.878C115.722 124.353 111.029 135.759 110.993 147.653C110.993 165.236 123.896 174.75 139.862 174.75C146.836 174.8 153.736 173.314 160.071 170.397L165.388 152.006H140.359L146.158 130.553H195.283L179.239 186.829C166.78 193.985 152.627 197.663 138.26 197.478C112.439 197.478 85.1869 182.165 85.1869 148.446ZM225.846 160.867C226.654 171.034 232.795 177.797 245.698 177.797C252.149 177.797 257.792 175.869 264.897 170.863L276.121 186.083C268.348 192.534 257.575 197.524 242.884 197.524C218.011 197.524 202.884 183.005 202.884 159.142C203.094 145.23 208.735 131.952 218.601 122.143C223.27 117.446 228.829 113.729 234.953 111.209C241.076 108.689 247.642 107.417 254.263 107.467C276.681 107.467 289.584 121.987 289.584 141.186C289.4 147.964 287.922 154.644 285.231 160.867H225.846ZM228.115 145.539H265.69C266.236 143.708 266.508 141.807 266.498 139.896C266.498 132.791 262.301 127.148 252.305 127.148C249.089 127.145 245.906 127.786 242.942 129.033C239.979 130.28 237.295 132.107 235.049 134.408C231.949 137.565 229.582 141.365 228.115 145.539ZM312.794 109.084H337.325L334.9 118.116C341.025 112.629 348.767 107.467 358.452 107.467C373.998 107.467 383.947 116.981 383.947 132.636C383.627 138.214 382.652 143.734 381.04 149.084L368.603 195.55H344.087L356.835 148.12C357.51 145.581 357.891 142.973 357.97 140.347C357.97 133.413 353.617 129.698 346.031 129.698C336.346 129.698 330.065 136.631 327.376 146.954L314.317 195.519H289.724L312.794 109.084ZM396.197 109.084H421.195L425.237 167.801L457.665 109.084H484.093L430.538 197.695C419.267 215.231 409.582 221.838 394.907 221.838C387.698 222.12 380.596 220.023 374.697 215.868L387.756 198.131C390.544 200.213 393.901 201.395 397.379 201.52C401.078 201.52 403.504 200.556 406.893 196.187L396.197 109.084ZM499.981 182.973L496.592 195.566H472.17L503.479 77.8058H527.964L517.159 118.458C524.575 111.509 531.835 107.483 541.52 107.483C560.392 107.483 574.741 121.194 574.741 144.591C574.833 151.726 573.506 158.809 570.837 165.428C568.168 172.046 564.211 178.068 559.195 183.144C550.712 191.884 539.116 196.914 526.938 197.136C513.475 197.167 505.562 191.508 499.981 182.973ZM540.4 169.262C543.375 166.211 545.718 162.602 547.295 158.643C548.871 154.684 549.651 150.453 549.588 146.192C549.588 134.906 542.483 128.128 531.524 128.128C528.376 128.203 525.275 128.898 522.397 130.173C519.518 131.448 516.92 133.278 514.75 135.559C511.777 138.515 509.421 142.033 507.82 145.909C506.218 149.784 505.403 153.938 505.422 158.131C505.422 169.107 513.195 176.522 523.968 176.522C530.139 176.309 535.983 173.699 540.26 169.246L540.4 169.262ZM606.874 160.867C607.683 171.034 613.808 177.797 626.711 177.797C633.162 177.797 638.821 175.869 645.91 170.863L657.212 186.083C649.439 192.534 638.65 197.524 623.975 197.524C599.101 197.524 583.96 183.005 583.96 159.142C584.167 145.256 589.783 131.998 599.614 122.189C604.273 117.49 609.823 113.767 615.939 111.239C622.054 108.711 628.613 107.429 635.23 107.467C657.663 107.467 670.566 121.987 670.566 141.186C670.416 147.957 668.976 154.637 666.322 160.867H606.874ZM609.128 145.539H646.718C647.257 143.707 647.529 141.806 647.527 139.896C647.527 132.791 643.329 127.148 633.333 127.148C630.118 127.145 626.935 127.786 623.971 129.033C621.007 130.28 618.323 132.107 616.077 134.408C612.973 137.564 610.601 141.364 609.128 145.539ZM680.111 180.066C680.173 176.388 680.695 172.733 681.665 169.184L692.205 130.118H681.867L687.511 109.146H697.849L703.803 87.0401H728.349L722.38 109.146H742.698L737.055 130.118H716.737L707.052 166.355C706.701 167.619 706.482 168.916 706.399 170.226C706.399 173.444 708.497 175.387 713.021 175.387C717.354 175.309 721.628 174.374 725.598 172.635L719.955 193.451C714.358 195.866 708.312 197.064 702.217 196.965C687.371 196.965 680.111 189.58 680.111 180.066Z" fill="#FDFFFF"/>
</g>
<defs>
<clipPath id="clip0_131_23150">
<rect width="778.94" height="206.48" fill="white" transform="translate(18.06 46.17)"/>
</clipPath>
</defs>
</svg>
