<svg width="812" height="302" viewBox="0 0 812 302" fill="none" xmlns="http://www.w3.org/2000/svg">
<path d="M32.0764 150.364C32.0764 146.864 32.2464 143.354 32.0264 139.874C31.7764 135.974 33.2864 134.614 37.2264 134.694C44.1764 134.844 44.2364 134.624 42.8464 127.954C39.6364 112.634 36.4764 97.3045 33.0964 82.0245C32.1864 77.8845 32.5564 75.7945 37.6064 76.0745C44.0764 76.4445 50.6064 76.3645 57.0864 76.0645C61.0964 75.8745 62.5164 77.4345 63.2164 81.2645C66.1464 97.4845 69.4864 113.624 72.4464 129.844C73.1064 133.444 74.4164 135.024 78.2564 134.884C81.7164 134.754 84.0764 134.604 84.8464 130.194C87.7064 113.794 91.1664 97.5045 94.0564 81.1045C94.7164 77.3745 96.0664 75.9645 99.7864 76.0845C105.776 76.2845 111.776 76.2545 117.776 76.0945C120.976 76.0145 122.526 77.0745 123.126 80.4245C126.086 96.8045 129.356 113.134 132.326 129.514C132.936 132.894 133.706 134.974 137.816 134.874C141.756 134.774 144.066 134.344 144.886 129.544C147.666 113.304 151.186 97.1845 154.126 80.9745C154.756 77.4845 156.046 76.1045 159.576 76.1845C166.406 76.3345 173.236 76.3445 180.066 76.1245C184.436 75.9845 185.026 77.8145 184.196 81.6345C180.746 97.4145 177.676 113.264 174.106 129.014C173.076 133.544 173.936 135.014 178.676 134.844C185.376 134.604 185.396 134.854 185.426 141.604C185.456 148.264 185.326 154.934 185.496 161.594C185.596 165.184 184.386 166.874 180.616 166.614C177.636 166.414 174.596 166.834 171.626 166.514C167.496 166.074 165.756 167.644 164.946 171.764C161.766 187.934 158.106 204.014 154.946 220.194C154.216 223.934 152.686 225.244 149.026 225.124C143.036 224.924 137.026 224.834 131.046 225.124C127.366 225.314 126.116 223.694 125.456 220.434C122.086 203.964 118.336 187.564 115.256 171.044C114.326 166.054 111.356 166.744 108.066 166.534C104.576 166.314 102.836 167.204 102.086 171.164C99.1164 186.864 95.4764 202.444 92.4864 218.144C91.5164 223.244 89.7864 225.754 84.1064 225.184C78.6664 224.634 73.1264 224.954 67.6264 225.104C64.6164 225.184 63.1164 224.144 62.4964 221.074C59.2064 204.754 55.6064 188.494 52.4464 172.154C51.6164 167.894 49.9164 165.934 45.5564 166.574C44.5764 166.714 43.5564 166.594 42.5564 166.594C35.5831 166.588 32.0964 163.011 32.0964 155.864C32.0964 154.034 32.0964 152.204 32.0964 150.364H32.0764Z" fill="#DF0A15"/>
<path d="M566.366 150.805C566.366 173.795 566.266 196.785 566.446 219.765C566.476 223.935 565.196 225.365 561.046 225.135C555.396 224.825 549.716 224.815 544.066 225.095C539.706 225.315 538.736 223.335 538.766 219.445C538.896 203.785 538.866 188.125 538.766 172.465C538.746 170.165 540.116 166.475 535.586 166.705C531.896 166.895 527.446 164.615 526.076 171.345C522.756 187.655 518.456 203.755 514.896 220.015C514.036 223.945 512.376 225.095 508.526 225.085C496.886 225.065 496.856 225.215 494.186 213.865C490.876 199.765 487.616 185.655 484.346 171.545C483.346 167.255 476.116 164.455 472.576 167.045C470.936 168.245 471.566 170.105 471.566 171.675C471.506 187.335 471.336 202.995 471.636 218.645C471.736 223.685 470.306 225.505 465.186 225.105C459.886 224.685 454.516 224.725 449.206 225.085C444.546 225.395 444.186 222.995 444.196 219.325C444.286 187.675 444.256 156.025 444.256 124.375C444.256 110.045 444.366 95.7246 444.186 81.3946C444.136 77.6346 445.026 75.9446 449.146 76.0346C459.636 76.2746 470.136 76.2346 480.626 76.1346C484.296 76.0946 486.086 76.9846 486.936 81.1546C490.266 97.4646 494.466 113.595 497.736 129.915C498.966 136.065 502.966 134.395 506.686 134.775C510.526 135.165 511.806 133.395 512.566 129.865C516.026 113.745 519.846 97.7146 523.336 81.6046C524.166 77.7646 525.636 75.8946 529.916 76.0046C540.406 76.2746 550.906 76.2246 561.396 76.0546C565.326 75.9946 566.486 77.4246 566.456 81.3146C566.296 104.465 566.376 127.625 566.376 150.775L566.366 150.805Z" fill="#DF0A15"/>
<path d="M329.466 151.114C329.466 174.104 329.386 197.105 329.556 220.095C329.586 223.795 328.486 225.185 324.826 225.105C317.996 224.955 311.166 224.985 304.336 225.105C301.266 225.155 299.576 224.005 298.366 221.045C291.536 204.225 284.516 187.484 277.506 170.734C276.836 169.134 276.666 167.194 274.306 166.694C270.126 165.804 268.456 166.964 268.456 171.304C268.426 187.304 268.246 203.295 268.536 219.285C268.626 224.055 266.976 225.325 262.526 225.105C256.376 224.795 250.196 224.895 244.036 225.075C240.496 225.175 238.946 224.055 238.956 220.255C239.026 173.935 239.026 127.614 238.936 81.2945C238.936 77.4345 240.246 75.9145 244.156 76.0545C250.476 76.2745 256.826 76.3445 263.146 76.0645C267.106 75.8945 269.106 77.3745 270.576 81.0345C277.136 97.4245 283.946 113.704 290.736 130.004C291.416 131.634 291.706 133.634 293.606 134.504C297.156 136.134 300.186 134.254 300.206 130.234C300.266 113.904 300.356 97.5745 300.186 81.2445C300.146 77.3445 301.306 75.8945 305.276 76.0445C311.596 76.2945 317.946 76.2845 324.266 76.0445C328.506 75.8745 329.596 77.5345 329.566 81.6245C329.386 104.785 329.476 127.944 329.486 151.104L329.466 151.114Z" fill="#DF0A15"/>
<path d="M678.136 76.2745C689.096 76.2745 699.036 76.2145 708.976 76.3145C711.506 76.3445 711.856 78.7145 712.556 80.5645C717.356 93.3445 722.146 106.135 726.986 118.905C727.486 120.225 727.706 121.835 729.886 122.735C733.416 113.395 736.936 104.105 740.446 94.8145C742.326 89.8245 744.216 84.8445 746.096 79.8545C746.756 78.1045 747.446 76.2645 749.716 76.2545C759.506 76.2045 769.286 76.2345 778.836 76.2345C780.136 78.9945 778.776 80.7245 778.066 82.4745C769.596 103.485 761.166 124.515 752.476 145.435C750.846 149.345 751.116 152.595 752.676 156.365C761.276 177.145 769.686 197.995 778.106 218.845C778.776 220.495 779.776 222.135 779.186 224.585C773.436 225.615 767.476 224.975 761.576 225.025C747.366 225.135 747.396 225.045 742.506 211.945C738.386 200.905 734.176 189.895 729.886 178.535C727.526 179.665 727.356 181.645 726.766 183.205C722.006 195.655 717.206 208.085 712.706 220.625C711.486 224.035 709.726 225.245 706.166 225.155C697.196 224.945 688.216 225.085 679.466 225.085C678.136 222.615 679.536 221.064 680.176 219.475C688.616 198.454 697.026 177.415 705.706 156.495C707.446 152.305 707.386 148.755 705.666 144.615C697.306 124.465 689.196 104.205 681.016 83.9845C680.156 81.8545 679.416 79.6645 678.166 76.2645L678.136 76.2745Z" fill="#DF0A15"/>
<path d="M434.996 225.074C425.606 225.074 417.286 225.014 408.976 225.104C406.006 225.134 405.406 223.225 404.996 220.984C403.876 214.924 402.626 208.884 401.716 202.794C401.256 199.724 399.986 198.504 396.846 198.584C390.186 198.744 383.516 198.714 376.846 198.584C374.026 198.524 372.646 199.434 372.176 202.374C371.186 208.624 369.686 214.794 368.716 221.044C368.266 223.924 367.056 225.084 364.196 225.054C357.026 224.974 349.866 224.975 342.696 225.094C339.316 225.154 338.896 223.634 339.476 220.714C346.916 183.644 354.286 146.564 361.676 109.484C363.596 99.8445 365.606 90.2245 367.366 80.5545C367.956 77.2945 369.496 76.0845 372.736 76.1245C382.236 76.2445 391.736 76.2245 401.236 76.1245C404.476 76.0945 405.816 77.3745 406.456 80.6445C414.806 123.134 423.316 165.594 431.776 208.064C432.836 213.404 433.806 218.764 435.006 225.074H434.996ZM386.606 166.794C386.606 166.794 386.606 166.764 386.606 166.754C388.266 166.754 389.936 166.724 391.596 166.754C394.116 166.804 394.756 165.444 394.346 163.214C392.726 154.554 391.116 145.884 389.496 137.224C389.226 135.764 388.496 134.794 386.876 134.734C385.186 134.664 384.546 135.664 384.276 137.134C382.686 145.804 381.086 154.474 379.476 163.144C379.006 165.694 379.906 166.974 382.616 166.804C383.946 166.724 385.276 166.794 386.606 166.794Z" fill="#DF0A15"/>
<path d="M671.196 224.934C662.196 224.934 653.416 224.984 644.636 224.904C642.136 224.884 642.026 222.704 641.686 220.934C640.536 214.884 639.316 208.834 638.386 202.744C637.916 199.704 636.616 198.494 633.476 198.584C626.986 198.764 620.476 198.794 613.986 198.554C610.326 198.414 609.046 199.954 608.566 203.364C607.756 209.134 606.396 214.824 605.526 220.584C605.046 223.774 603.676 225.174 600.326 225.104C592.236 224.944 584.146 225.054 575.366 225.054C577.236 215.404 578.856 206.774 580.576 198.154C588.346 159.284 596.206 120.434 603.836 81.5345C604.646 77.4045 606.356 75.9645 610.396 76.0545C619.386 76.2545 628.386 76.1545 637.386 76.1445C640.026 76.1445 642.096 76.2945 642.776 79.7645C652.086 126.984 661.546 174.184 670.946 221.384C671.136 222.334 671.086 223.324 671.196 224.934ZM615.556 166.734C620.526 166.734 624.476 166.734 628.416 166.734C630.276 166.734 631.256 165.814 630.926 163.924C629.346 154.934 627.726 145.954 626.086 136.984C625.816 135.494 624.866 134.694 623.256 134.794C621.846 134.884 621.166 135.774 620.936 136.994C619.176 146.584 617.456 156.184 615.546 166.734H615.556Z" fill="#DF0A15"/>
<path d="M226.736 150.765C226.736 173.425 226.586 196.095 226.846 218.755C226.906 223.885 225.296 225.495 220.306 225.145C214.666 224.755 208.966 224.785 203.316 225.145C198.696 225.435 197.356 223.775 197.376 219.205C197.536 185.545 197.466 151.885 197.456 118.225C197.456 105.895 197.596 93.5645 197.386 81.2345C197.316 77.2145 198.806 75.9645 202.626 76.0845C208.956 76.2845 215.296 76.3545 221.616 76.0645C225.666 75.8745 226.756 77.4845 226.736 81.2845C226.616 104.445 226.676 127.605 226.676 150.775H226.726L226.736 150.765Z" fill="#DF0A15"/>
</svg>
