<svg width="812" height="302" viewBox="0 0 812 302" fill="none" xmlns="http://www.w3.org/2000/svg">
<g clip-path="url(#clip0_132_23266)">
<path d="M422.371 217.357V78.6436C424.105 78.3499 425.434 77.9163 426.763 77.9163C460.739 78.0002 494.7 78.0701 528.676 78.3219C532.578 78.3499 536.537 79.1332 540.383 79.9864C551.811 82.5601 558.609 89.4979 560.287 101.233C561.085 106.758 561.336 112.255 560.861 117.809C559.476 133.978 552.049 142.384 536.033 146.105C534.313 146.497 532.243 146.133 530.606 148.385C534.97 149.532 539.124 150.497 543.195 151.728C553.741 154.889 560.259 161.771 562.078 172.667C563.463 180.962 563.323 189.229 560.917 197.369C558.203 206.531 551.923 212.308 542.971 215.231C535.628 217.623 527.99 218.574 520.269 218.588C489.553 218.63 458.836 218.63 428.12 218.616C426.301 218.616 424.385 218.952 422.357 217.357H422.371ZM473.425 187.005C484.615 187.046 494.994 187.732 505.345 186.459C511.611 185.69 515.318 181.997 515.863 175.549C516.325 170.122 514.325 165.562 509.009 164.135C497.288 161.002 485.385 162.834 473.439 162.876V186.991L473.425 187.005ZM473.649 113.193V136.44C484.14 136.482 494.057 137.405 503.904 135.936C510.492 134.957 513.779 130.215 513.583 123.613C513.401 117.725 510.45 113.612 504.533 113.319C494.434 112.829 484.28 113.179 473.649 113.179V113.193Z" fill="#B3071C"/>
<path d="M60.3753 130.285C62.2916 159.561 62.3615 188.669 62.0818 218.253H15.0139V78.5597H75.4818C86.406 102.604 97.526 126.942 106.8 152.288C105.485 127.782 104.883 103.513 105.681 78.6856H151.686V218.071H98.5751C86.0283 189.173 71.1876 160.736 60.3753 130.271V130.285Z" fill="url(#paint0_linear_132_23266)"/>
<path d="M291.812 173.535H211.426C211.258 182.501 216.685 188.207 226.882 190.473C237.778 192.893 248.675 191.732 259.473 189.998C268.817 188.501 278.034 186.305 288.077 184.277C286.651 194.082 285.266 203.608 283.797 213.707C272.425 217.763 260.634 220.127 248.717 221.777C234.393 223.764 220.07 224.113 205.705 221.288C183.115 216.84 169.603 203.51 164.666 181.354C161.309 166.289 161.099 151.225 164.26 136.062C168.456 115.892 180.402 103.331 200.628 98.6317C220.182 94.0857 239.737 93.8619 259.193 99.1912C278.44 104.45 288.511 117.711 291.602 136.706C293.532 148.609 292.973 160.54 291.826 173.549L291.812 173.535ZM252.13 147.392C253.346 134.971 246.157 127.921 232.169 127.39C217.958 126.858 209.999 133.894 210.209 147.392H252.143H252.13Z" fill="url(#paint1_linear_132_23266)"/>
<path d="M696.218 173.367H615.846C616.209 182.934 621.538 188.459 631.637 190.613C645.401 193.551 658.955 191.201 672.453 188.823C678.845 187.704 685.126 185.983 692.721 184.249C691.266 194.138 689.881 203.538 688.399 213.553C676.677 217.413 664.718 219.973 652.577 221.721C638.463 223.75 624.392 224.029 610.307 221.05C589.493 216.644 575.758 204.95 570.4 184.179C566.176 167.814 565.784 151.448 569.477 134.901C573.799 115.598 585.437 103.639 604.726 98.9114C624.266 94.1277 643.779 93.9178 663.277 99.0792C683.153 104.339 693.49 117.822 696.441 137.461C698.204 149.14 697.994 160.82 696.204 173.367H696.218ZM657.458 147.644C658.172 139.909 655.836 133.712 649.304 130.397C640.086 125.725 630.365 125.641 621.455 131.432C615.776 135.125 614.265 140.93 614.825 147.644H657.458Z" fill="#B3071C"/>
<path d="M310.303 140.314H295.085C293.784 132.3 294.735 124.732 294.498 117.235C294.442 115.403 295.631 114.312 296.861 113.207C309.954 101.429 322.347 88.9525 333.704 76.056H361.148V100.017H395.907V140.133H361.162C361.162 147.336 361.162 153.91 361.162 160.498C361.162 165.352 361.134 170.192 361.162 175.045C361.26 186.977 365.148 190.599 377.345 189.928C382.633 189.634 387.906 189.089 393.277 188.641V218.155C371.778 222.645 350.909 225.106 329.83 220.84C318.752 218.588 312.919 210.853 311.283 200.027C309.128 185.802 310.681 171.465 310.317 157.183C310.191 151.924 310.289 146.651 310.289 140.328L310.303 140.314Z" fill="url(#paint2_linear_132_23266)"/>
<path d="M766.868 100.016H800.676V140.007H766.071C765.847 154.777 765.12 168.723 766.519 182.626C766.98 187.256 771.218 188.977 775.694 189.76C783.136 191.061 790.437 188.697 798.83 189.159C798.242 198.754 798.9 208.307 797.053 218.141C778.086 222.183 759.231 224.645 740.208 221.945C723.06 219.511 715.66 210.028 715.339 191.606C715.087 177.087 715.269 162.554 715.269 148.021C715.269 145.756 715.269 143.504 715.269 140.552C709.897 140.314 705.142 140.105 699.98 139.881C698.707 132.104 699.491 124.564 699.463 117.067C699.463 114.997 701.127 113.892 702.498 112.647C715.199 101.121 727.214 88.9384 738.768 76H765.148C767.036 83.847 764.574 91.7919 766.868 100.016Z" fill="#B3071C"/>
</g>
<defs>
<filter id="filter0_d_132_23266" x="13.6152" y="76" width="788.46" height="150.127" filterUnits="userSpaceOnUse" color-interpolation-filters="sRGB">
<feFlood flood-opacity="0" result="BackgroundImageFix"/>
<feColorMatrix in="SourceAlpha" type="matrix" values="0 0 0 0 0 0 0 0 0 0 0 0 0 0 0 0 0 0 127 0" result="hardAlpha"/>
<feOffset dy="1.39875"/>
<feGaussianBlur stdDeviation="0.699373"/>
<feColorMatrix type="matrix" values="0 0 0 0 0 0 0 0 0 0 0 0 0 0 0 0 0 0 1 0"/>
<feBlend mode="normal" in2="BackgroundImageFix" result="effect1_dropShadow_132_23266"/>
<feBlend mode="normal" in="SourceGraphic" in2="effect1_dropShadow_132_23266" result="shape"/>
</filter>
<linearGradient id="paint0_linear_132_23266" x1="83.3427" y1="218.253" x2="83.3427" y2="78.5597" gradientUnits="userSpaceOnUse">
<stop stop-color="#A1A1A1"/>
<stop offset="1" stop-color="#C7C7C7"/>
</linearGradient>
<linearGradient id="paint1_linear_132_23266" x1="227.442" y1="223.33" x2="227.442" y2="95.2047" gradientUnits="userSpaceOnUse">
<stop stop-color="#A1A1A1"/>
<stop offset="1" stop-color="#C7C7C7"/>
</linearGradient>
<linearGradient id="paint2_linear_132_23266" x1="345.146" y1="223.05" x2="345.146" y2="76.056" gradientUnits="userSpaceOnUse">
<stop stop-color="#A1A1A1"/>
<stop offset="1" stop-color="#C7C7C7"/>
</linearGradient>
<clipPath id="clip0_132_23266">
<rect width="785.662" height="147.33" fill="white" transform="translate(15.0139 76)"/>
</clipPath>
</defs>
</svg>
