<svg width="812" height="302" viewBox="0 0 812 302" fill="none" xmlns="http://www.w3.org/2000/svg">
<g clip-path="url(#clip0_130_22513)">
<path d="M770.821 170.642C766.272 187.962 756.373 203.246 742.649 214.142C728.924 225.036 712.136 230.938 694.87 230.937H491.189C499.371 226.848 506.599 220.957 512.37 213.671C518.14 206.385 522.316 197.881 524.608 188.748C535.911 145.981 548.455 98.3913 555.74 69.8577L556.459 67.0723H694.87C706.993 67.0658 718.953 69.9704 729.82 75.5599C740.686 81.1495 750.163 89.2729 757.514 99.2969C764.866 109.321 769.891 120.975 772.199 133.35C774.507 145.725 774.036 158.487 770.821 170.642Z" fill="#00A870"/>
<path fill-rule="evenodd" clip-rule="evenodd" d="M37.8301 67H163.207C177.091 67 191.497 71.4838 191.497 100.799C191.497 135.277 168.859 171.114 137.041 171.114H83.8257C83.8257 171.114 76.7369 198.662 74.0255 209.464C71.0527 221.659 61.8079 230.287 43.8408 230.287H34.4C34.6229 229.424 34.8989 228.354 35.2545 226.974C38.0783 216.02 45.9206 185.599 72.0328 85.3769C71.5159 85.3769 66.5877 84.0539 60.931 82.5354C56.5759 81.3662 51.7892 80.0812 48.251 79.1947C38.6794 76.749 36.9481 72.1292 37.8301 67ZM137.367 144.788C139.766 144.767 142.081 143.865 143.901 142.24L143.999 142.342C148.722 137.134 152.276 130.902 154.405 124.094C156.535 117.287 157.187 110.073 156.314 102.973C156.236 101.11 155.494 99.3437 154.231 98.0187C152.969 96.6938 151.278 95.9048 149.487 95.8053H103.197L90.6205 144.788H137.367Z" fill="#00A870"/>
<path d="M219.2 67H226.648C239.356 67 246.249 71.7216 249.221 82.082C251.573 90.2005 274.473 171.079 274.473 171.079C274.473 171.079 344.675 80.7913 347.942 76.6471C353.234 69.8534 363.949 67.0679 378.159 67.0679H387.535C385.303 75.6681 375.276 113.978 366.178 148.739L366.116 148.976C357.919 180.299 350.491 208.674 350.229 209.736C347.223 221.896 339.644 230.355 321.677 230.355H312.073C313.118 226.006 336.573 137.213 336.573 137.213C336.573 137.213 286.593 202.5 281.267 209.158C279.814 211.09 277.931 212.625 275.779 213.632C273.628 214.638 271.273 215.085 268.919 214.933H260.59C255.428 214.933 253.076 213.914 251.573 208.411L231.613 137.621C231.613 137.621 229.326 148.423 226.419 159.666L226.341 159.97C220.144 183.956 215.923 200.298 213.353 209.668C210.086 221.76 201.919 230.456 185.127 230.456H176.112L219.2 67Z" fill="#00A870"/>
<path d="M527.221 67H535.813C529.097 93.2706 517.904 135.786 505.514 182.85L504.714 185.89C496.938 215.272 471.066 231 428.827 231C390.378 231 371.561 207.697 378.128 183.206C383.07 164.779 395.429 116.807 400.708 96.3169L400.712 96.3006L400.731 96.2276C401.756 92.2489 402.511 89.3179 402.889 87.8567C406.156 75.4242 415.14 67.1359 433.074 67.1359H442.678L410.892 186.331C410.249 188.071 410.224 189.992 410.824 191.749C411.422 193.505 412.605 194.981 414.159 195.911C420.922 199.974 428.631 202.019 436.439 201.821C446.548 202.079 456.55 199.623 465.48 194.688C467.991 192.879 469.772 190.17 470.478 187.078C475.868 167.207 494.652 97.0621 497.101 87.8567C500.304 75.4242 509.123 67 527.221 67Z" fill="#00A870"/>
<path d="M621.339 124.984L616.929 140.711H643.585L639.143 156.948H612.453L603.895 188.675H586.189L607.847 108.747H652.209L647.865 124.984H621.339Z" fill="#005747"/>
<path d="M690.723 154.027L697.551 188.675H678.44L672.92 156.235H667.693L658.873 188.675H641.167L662.826 108.747H689.514C706.633 108.747 716.171 115.541 711.598 132.525C710.208 137.682 707.554 142.376 703.894 146.145C700.234 149.914 695.696 152.631 690.723 154.027ZM671.743 141.085H679.78C687 141.085 691.671 138.775 693.337 132.491C695.003 126.207 691.736 123.897 684.517 123.897H676.481L671.743 141.085Z" fill="#005747"/>
<path d="M563.78 188.677C572.277 188.677 579.166 181.514 579.166 172.678C579.166 163.842 572.277 156.679 563.78 156.679C555.282 156.679 548.393 163.842 548.393 172.678C548.393 181.514 555.282 188.677 563.78 188.677Z" fill="#005747"/>
</g>
<defs>
<clipPath id="clip0_130_22513">
<rect width="746.2" height="164" fill="white" transform="translate(34.4 67)"/>
</clipPath>
</defs>
</svg>
