<svg width="812" height="302" viewBox="0 0 812 302" fill="none" xmlns="http://www.w3.org/2000/svg">
<g clip-path="url(#clip0_141_23349)">
<path d="M756 74.1953C744.282 83.4219 734.237 94.4729 723.093 104.331C722.368 104.974 721.701 105.688 720.988 106.354C718.544 108.611 715.749 109.243 713.129 107.044C710.486 104.846 710.65 101.829 712.381 99.1272C715.316 94.5431 718.473 90.1227 721.526 85.6088C722.485 84.1821 723.397 82.7203 724.823 80.4984C718.544 79.8669 712.872 79.2939 707.2 78.7326C703.704 78.3935 700.055 78.3818 698.523 74.2303C697.015 70.1608 699.354 67.6699 702.032 65.1674C712.252 55.6016 722.414 45.9773 732.588 36.3764C735.067 34.0376 737.874 32.6109 740.879 35.0316C744.072 37.6043 743.487 40.7734 741.382 43.8606C737.558 49.4388 733.746 55.0286 729.291 61.5539C735.863 62.314 741.523 63.2612 747.206 63.5302C750.738 63.6939 753.568 64.7464 756 67.1671V74.1719V74.1953Z" fill="#D81084"/>
<path d="M203.159 41.9079C204.785 31.7925 201.463 23.8989 194.049 20.6246C185.396 16.7889 174.602 19.3616 168.65 26.7172C164.756 31.5118 162.616 37.0899 161.598 43.1241C160.896 47.3106 161.013 51.7778 159.563 55.6602C156.956 62.6533 154.921 69.7517 154.558 77.1307C154.02 88.1933 151.623 98.566 145.39 108.19C143.694 104.589 144.419 101.022 144.162 97.5954C142.49 75.4818 139.753 53.5085 134.865 31.8626C133.17 24.3901 128.398 20.7181 120.797 20.3205C103.759 19.3967 92.3454 32.2485 94.3217 50.8539C95.5379 62.1972 96.5553 73.7745 99.7712 84.6266C104.004 98.9519 101.829 113.207 102.671 127.591C88.8138 125.018 74.6171 134.982 75.1901 151.809C55.0879 156.019 52.2345 171.035 57.6489 185.056C58.3505 186.857 59.3679 188.821 59.2042 190.622C57.7892 205.86 65.5424 218.805 69.5886 232.651C71.2842 238.405 74.6405 243.655 78.827 248.041C81.5049 250.847 82.1949 253.829 82.113 257.501C81.9376 266.003 82.0546 274.504 82.0546 283.111H180.122C180.718 280.083 180.005 277.463 179.677 274.797C178.064 261.43 175.666 249.081 182.203 235.025C195.792 205.825 194.342 174.59 186.518 143.694C185.665 140.314 184.963 137.168 185.723 133.461C191.98 103.033 198.259 72.605 203.159 41.9079ZM181.876 143.249C189.524 170.883 189.781 198.493 181.537 226.044C180.484 229.564 179.642 233.54 177.42 236.241C170.193 245.035 172.076 254.636 173.725 264.389C174.532 269.149 175.128 273.943 175.783 278.504C174.029 280.001 172.602 279.708 170.743 278.796C169.305 269.686 167.831 260.331 166.323 250.777C164.65 251.327 163.387 251.748 162.124 252.157C161.715 252.356 161.294 252.543 160.861 252.753C160.522 251.806 161.095 251.759 161.551 251.607C177.034 233.832 180.543 212.128 181.595 189.722C182.367 173.303 180.87 157.084 175.713 141.355C174.544 137.8 175.631 134.432 176.321 131.052C182.238 102.133 188.097 73.1897 192.927 44.0596C193.219 42.3406 193.441 40.5865 193.535 38.844C193.722 35.1019 194.014 31.0557 189.652 29.4069C185.443 27.8282 181.174 28.0854 177.654 31.3364C172.439 36.1661 171.152 42.5043 170.568 49.591H180.66C180.589 50.2692 180.636 50.9007 180.508 50.9358C170.123 53.7424 166.521 61.5775 165.048 71.2602C164.159 77.1891 163.27 83.0713 163.107 89.2692C167.445 89.199 171.187 86.7316 176.906 88.6728C157.95 93.2218 155.786 108.237 152.804 122.141C151.225 129.474 149.039 135.555 142.817 140.244C138.923 143.191 136.011 147.436 132.526 151.248C132.105 150.418 131.731 149.927 131.825 149.798C136.83 143.507 136.257 136.198 135.988 128.784C134.935 98.835 132.597 69.0266 126.679 39.5925C125.837 35.3943 126.188 30.2488 119.756 29.8279C113.617 29.4302 108.062 32.5994 105.665 38.1541C103.385 43.4281 103.548 52.5613 106.051 59.7882C111.228 57.7535 115.25 56.8881 118.119 57.1922C117.944 59.2035 116.201 58.689 115.044 59.0866C109.758 60.8758 106.893 64.922 107.174 70.1376C107.63 79.0134 109.594 87.7022 112.424 96.122C116.774 95.9933 120.47 93.6896 124.867 94.2977C124.574 95.2683 124.539 96.1103 124.259 96.2038C113.383 99.7121 111.629 108.144 112.19 118.037C112.658 126.351 113.126 134.666 115.091 143.518C110.612 141.425 106.916 139.414 103.01 137.964C97.9586 136.093 93.2809 136.595 88.9775 140.513C84.8612 144.267 84.8612 148.675 85.9604 153.365C87.1064 158.276 89.1061 162.907 91.6671 167.784C99.5607 165.971 107.443 165.784 115.745 167.082C116.529 161.937 113.418 158.194 112.506 153.704C118.587 156.85 120.598 163.165 123.627 168.708C139.941 171.596 154.172 179.384 168.837 186.202C162.931 186.553 157.821 184.226 152.722 182.249C138.701 176.812 124.282 173.151 109.372 171.374C104.367 170.777 99.3034 170.403 94.3568 172.111C86.931 174.683 84.6273 178.893 86.4048 187.29C90.5445 188.494 94.9181 188.634 99.2917 188.471C101.502 185.36 100.145 180.448 105.431 178.25C104.133 183.419 103.583 187.944 104.344 192.833C100.099 194.014 96.0174 192.622 90.451 193.394C98.4965 198.984 106.215 199.51 114.225 199.381C114.541 196.773 112.658 194.645 114.225 192.037C122.212 202.796 134.854 207.041 144.992 215.18C141.835 215.449 139.66 213.555 137.204 212.666C129.17 209.766 123.312 213.145 121.908 221.612C119.312 237.235 124.27 246.322 138.818 252.625C139.508 252.917 140.151 253.291 140.818 253.642C140.584 257.408 138.888 260.518 137.859 263.956C135.532 262.272 136.76 259.501 135.567 257.56C114.623 245.924 111.524 234.85 121.3 206.316C119.616 203.03 116.868 205.135 114.564 205.006C112.249 204.878 109.933 204.772 107.618 204.644C106.589 205.193 106.729 206.246 106.519 207.17C104.507 215.952 98.1925 219.6 89.5154 216.993C82.4639 214.864 77.4588 210.105 73.2956 204.293C72.1847 202.749 71.179 201.124 69.8225 199.077C69.5652 200.024 69.2378 200.527 69.3547 200.89C73.2372 212.654 75.7514 224.921 81.6336 235.972C86.7673 245.643 94.158 252.718 105.092 255.49C105.946 255.7 106.694 256.273 108.951 257.419H93.468C92.1817 264.798 93.3628 272.072 91.7841 278.96C90.1001 279.79 88.5916 279.743 86.8024 279.147C86.6387 278.574 86.2528 277.872 86.2411 277.159C86.1943 269.371 86.1241 261.594 86.2294 253.806C86.2644 251.116 85.5862 249.046 83.6216 247.058C78.6516 242.006 75.1199 235.937 72.7811 229.271C69.8926 221.039 66.4429 212.853 64.8174 204.351C62.8878 194.154 61.4378 183.851 59.6603 173.596C57.8594 163.2 68.3841 155.739 80.7916 157.434C78.7451 136.35 87.6561 128.257 107.887 133.73C106.776 126.819 105.852 119.99 106.916 113.441C108.577 103.279 105.256 94.0053 103.829 84.3226C101.935 71.5175 98.6252 58.841 98.6485 45.8254C98.6602 33.874 105.688 26.0857 116.938 24.6356C124.586 23.6533 129.439 26.8225 131.041 34.3184C134.386 49.9067 136.397 65.7055 138.35 81.5277C140.432 98.3205 140.128 115.277 141.718 132.304C145.343 132.117 145.776 129.474 146.232 127.111C148.314 116.224 150.43 105.372 156.593 95.7945C158.324 93.1049 157.599 89.7019 157.821 86.6497C158.581 76.1484 159.938 65.8926 164.253 56.0578C166.229 51.5322 164.954 46.0944 166.287 41.1478C169.094 30.7634 174.918 24.4485 183.267 23.3844C192.751 22.1799 199.639 27.8282 198.926 37.3706C197.756 52.877 194.26 68.0794 191.371 83.3286C188.144 100.32 184.799 117.277 181.186 134.186C180.484 137.472 181.057 140.267 181.876 143.249Z" fill="#D81084"/>
<path d="M492.695 162.837C485.713 152.277 476.171 144.805 464.149 140.84C447.193 135.251 430.938 137.554 414.87 146.968V108.389C404.813 111.523 395.446 114.458 386.512 117.242V244.252H413.315C413.572 242.123 413.806 240.229 414.087 237.914C444.257 255.876 473.282 245.293 487.491 229.155C504.237 210.14 506.424 183.583 492.695 162.837ZM443.474 221.109C427.745 221.027 414.823 208.082 414.87 192.47C414.917 176.917 428.049 164.147 443.836 164.311C459.319 164.474 472.183 177.244 472.242 192.529C472.312 207.941 458.957 221.203 443.474 221.109Z" fill="#D81084"/>
<path d="M626.745 180.706C619.05 148.851 584.342 130.433 551.469 140.688C524 149.26 507.102 176.016 512.563 202.281C517.498 225.939 536.7 243.515 561.269 246.848C586.634 250.298 611.764 237.82 622.429 216.385C623.049 215.133 624.499 213.917 623.318 211.988C616.033 211.988 608.513 212.865 601.298 211.765C592.843 210.479 587.768 216.42 581.149 219.004C564.929 225.319 545.739 216.642 541.366 200.223H627.329C628.943 193.335 628.265 186.962 626.745 180.706ZM543.412 180.858C545.353 172.543 556.124 165.036 567.373 164.194C580.237 163.223 592.586 170.111 596.761 180.858H543.412Z" fill="#D81084"/>
<path d="M324.965 244.334H301.413C285.229 210.175 268.997 175.899 252.532 141.144H284.515C293.882 162.124 303.249 183.115 313.166 205.334C323.071 183.162 332.461 162.147 341.864 141.098H373.812C357.347 175.899 341.162 210.105 324.965 244.334Z" fill="#D81084"/>
<path d="M639.713 117.347C649.396 114.318 658.611 111.43 668.832 108.237V140.864H697.88V165.386H669.417C669.931 177.501 667.709 189.336 670.656 200.866C673.626 212.502 682.046 218.431 697.892 221.659V246.754C669.686 250.262 643.397 229.166 640.403 200.831C638.942 187.067 639.924 173.257 639.76 159.469C639.596 145.682 639.725 131.883 639.725 117.358L639.713 117.347Z" fill="#D81084"/>
<path d="M100.847 208.561C100.005 211.742 97.5845 213.227 94.4388 213.625C90.7317 214.081 87.4106 213.087 84.908 210.35C76.7572 201.404 69.4835 191.885 66.1389 179.946C63.7884 171.549 65.4139 165.831 70.8868 163.129C76.1959 160.51 80.3006 162.404 86.0892 170.146C77.5992 178.87 76.2544 188.681 88.9308 198.493C87.9953 200.551 85.6214 201.779 85.446 204.398C87.9953 205.743 88.6853 203.053 90.1236 202.188C93.1056 200.387 95.9005 200.282 98.7656 202.363C100.952 203.954 101.479 206.164 100.847 208.561Z" fill="#D81084"/>
</g>
<defs>
<clipPath id="clip0_141_23349">
<rect width="700.76" height="264.253" fill="white" transform="translate(55.24 18.8586)"/>
</clipPath>
</defs>
</svg>
