<svg width="58" height="42" viewBox="0 0 58 42" fill="none" xmlns="http://www.w3.org/2000/svg">
<path d="M4.03364 31.2381L0.233398 41.4512H5.79808L9.59832 31.2381H4.03364Z" fill="#D76D35"/>
<path d="M11.8053 36.6863L11.593 36.1626H10.5696L10.3573 36.6863H9.96973L10.922 34.4472H11.2355L12.1868 36.6863H11.8053ZM10.6947 35.8441H11.4648L11.0803 34.8918L10.6947 35.8441Z" fill="white"/>
<mask id="mask0_5535_1158" style="mask-type:luminance" maskUnits="userSpaceOnUse" x="-520" y="-530" width="597" height="597">
<path d="M-519.209 66.2783H76.8895V-529.82H-519.209V66.2783Z" fill="white"/>
</mask>
<g mask="url(#mask0_5535_1158)">
<path d="M12.6169 36.4743C12.4677 36.3151 12.3926 36.0838 12.3926 35.7784V34.4445H12.7691V35.8014C12.7691 35.9937 12.8122 36.1399 12.8973 36.238C12.9834 36.3361 13.1086 36.3852 13.2738 36.3852C13.437 36.3852 13.5612 36.3361 13.6463 36.236C13.7324 36.1369 13.7755 35.9917 13.7755 35.8014V34.4445H14.151V35.7784C14.151 36.0818 14.0769 36.3131 13.9267 36.4723C13.7775 36.6325 13.5602 36.7126 13.2738 36.7126C12.9854 36.7126 12.7661 36.6335 12.6169 36.4743Z" fill="white"/>
</g>
<path d="M15.0795 36.6837V34.7811H14.3926V34.4446H16.151V34.7811H15.4651V36.6837H15.0795Z" fill="white"/>
<mask id="mask1_5535_1158" style="mask-type:luminance" maskUnits="userSpaceOnUse" x="-520" y="-530" width="597" height="597">
<path d="M-519.209 66.2783H76.8895V-529.82H-519.209V66.2783Z" fill="white"/>
</mask>
<g mask="url(#mask1_5535_1158)">
<path d="M16.707 36.5725C16.5567 36.4803 16.4406 36.3461 16.3595 36.1719C16.2774 35.9987 16.2373 35.7964 16.2373 35.5621C16.2373 35.3297 16.2774 35.1265 16.3575 34.9552C16.4386 34.782 16.5547 34.6488 16.706 34.5557C16.8562 34.4625 17.0344 34.4165 17.2397 34.4165C17.445 34.4165 17.6222 34.4625 17.7724 34.5557C17.9226 34.6488 18.0378 34.782 18.1189 34.9552C18.199 35.1265 18.2401 35.3297 18.2401 35.5621C18.2401 35.7964 18.199 35.9987 18.1169 36.1719C18.0358 36.3461 17.9196 36.4803 17.7694 36.5725C17.6192 36.6656 17.443 36.7126 17.2397 36.7126C17.0344 36.7126 16.8572 36.6656 16.707 36.5725ZM17.6923 36.1719C17.8005 36.0307 17.8545 35.8274 17.8545 35.5621C17.8545 35.2987 17.8005 35.0954 17.6923 34.9552C17.5832 34.814 17.433 34.7429 17.2397 34.7429C17.0444 34.7429 16.8932 34.814 16.7851 34.9552C16.6759 35.0954 16.6218 35.2987 16.6218 35.5621C16.6218 35.8274 16.6759 36.0307 16.7851 36.1719C16.8932 36.3141 17.0444 36.3852 17.2397 36.3852C17.433 36.3852 17.5832 36.3141 17.6923 36.1719Z" fill="white"/>
<path d="M20.3943 36.6851H19.9767L19.6152 35.9711C19.5812 35.903 19.5401 35.8549 19.4901 35.8269C19.44 35.7998 19.3769 35.7858 19.3018 35.7858H19.0094V36.6851H18.6299V34.446H19.5612C19.8005 34.446 19.9817 34.503 20.1059 34.6162C20.2311 34.7284 20.2932 34.8926 20.2932 35.1069C20.2932 35.2781 20.2481 35.4193 20.157 35.5305C20.0669 35.6416 19.9387 35.7147 19.7735 35.7488C19.8846 35.7798 19.9747 35.8629 20.0418 35.9991L20.3943 36.6851ZM19.8275 35.3843C19.8946 35.3262 19.9287 35.2361 19.9287 35.1159C19.9287 34.9937 19.8946 34.9036 19.8275 34.8475C19.7594 34.7914 19.6533 34.7634 19.5081 34.7634H19.0064V35.4714H19.5081C19.6533 35.4714 19.7594 35.4433 19.8275 35.3843Z" fill="white"/>
</g>
<path d="M20.6904 36.6837H21.075V34.4446H20.6904V36.6837Z" fill="white"/>
<path d="M22.0209 36.6863V34.7837H21.334V34.4472H23.0924V34.7837H22.4065V36.6863H22.0209Z" fill="white"/>
<path d="M23.3496 36.6863V34.4472H24.7586V34.7716H23.7261V35.3875H24.6985V35.7079H23.7261V36.3628H24.7586V36.6863H23.3496ZM24.2208 34.2569H23.9825L24.2869 33.7673H24.6484L24.2208 34.2569Z" fill="white"/>
<path d="M27.3378 34.4472H27.6993V36.6863H27.4099L26.2813 35.1241V36.6863H25.9229V34.4472H26.2092L27.3378 36.0073V34.4472Z" fill="white"/>
<path d="M29.7642 36.6863L29.552 36.1626H28.5285L28.3172 36.6863H27.9287L28.881 34.4472H29.1945L30.1468 36.6863H29.7642ZM28.6537 35.8441H29.4238L29.0392 34.8918L28.6537 35.8441Z" fill="white"/>
<path d="M30.601 36.6837V34.7811H29.9141V34.4446H31.6725V34.7811H30.9865V36.6837H30.601Z" fill="white"/>
<path d="M31.9395 36.6837H32.324V34.4446H31.9395V36.6837Z" fill="white"/>
<mask id="mask2_5535_1158" style="mask-type:luminance" maskUnits="userSpaceOnUse" x="-520" y="-530" width="597" height="597">
<path d="M-519.209 66.2783H76.8895V-529.82H-519.209V66.2783Z" fill="white"/>
</mask>
<g mask="url(#mask2_5535_1158)">
<path d="M33.1992 36.5712C33.049 36.4791 32.9328 36.3449 32.8517 36.1707C32.7696 35.9974 32.7285 35.7952 32.7285 35.5608C32.7285 35.3285 32.7686 35.1252 32.8497 34.954C32.9298 34.7808 33.047 34.6476 33.1972 34.5544C33.3484 34.4613 33.5266 34.4153 33.7319 34.4153C33.9372 34.4153 34.1144 34.4613 34.2646 34.5544C34.4148 34.6476 34.53 34.7808 34.6111 34.954C34.6912 35.1252 34.7313 35.3285 34.7313 35.5608C34.7313 35.7952 34.6912 35.9974 34.6091 36.1707C34.528 36.3449 34.4118 36.4791 34.2616 36.5712C34.1114 36.6644 33.9352 36.7114 33.7319 36.7114C33.5266 36.7114 33.3494 36.6644 33.1992 36.5712ZM34.1845 36.1707C34.2927 36.0295 34.3467 35.8262 34.3467 35.5608C34.3467 35.2975 34.2927 35.0942 34.1845 34.954C34.0754 34.8128 33.9252 34.7417 33.7319 34.7417C33.5366 34.7417 33.3854 34.8128 33.2763 34.954C33.1681 35.0942 33.114 35.2975 33.114 35.5608C33.114 35.8262 33.1681 36.0295 33.2763 36.1707C33.3854 36.3129 33.5366 36.384 33.7319 36.384C33.9252 36.384 34.0754 36.3129 34.1845 36.1707Z" fill="white"/>
</g>
<path d="M36.5155 34.4472H36.876V36.6863H36.5866L35.4581 35.1241V36.6863H35.1006V34.4472H35.387L36.5155 36.0073V34.4472Z" fill="white"/>
<path d="M38.942 36.6863L38.7297 36.1626H37.7063L37.494 36.6863H37.1064L38.0578 34.4472H38.3722L39.3235 36.6863H38.942ZM37.8314 35.8441H38.6015L38.216 34.8918L37.8314 35.8441Z" fill="white"/>
<path d="M39.5439 36.6863V34.4472H39.9285V36.3498H40.9108V36.6863H39.5439Z" fill="white"/>
<path d="M41.1973 36.6863V34.4472H42.6062V34.7716H41.5728V35.3875H42.5461V35.7079H41.5728V36.3628H42.6062V36.6863H41.1973Z" fill="white"/>
<mask id="mask3_5535_1158" style="mask-type:luminance" maskUnits="userSpaceOnUse" x="-520" y="-530" width="597" height="597">
<path d="M-519.209 66.2783H76.8895V-529.82H-519.209V66.2783Z" fill="white"/>
</mask>
<g mask="url(#mask3_5535_1158)">
<path d="M43.7812 34.4434H44.5573C44.9018 34.4434 45.1692 34.5415 45.3594 34.7378C45.5497 34.9331 45.6438 35.2075 45.6438 35.5609C45.6438 35.9154 45.5497 36.1908 45.3594 36.3881C45.1692 36.5844 44.9018 36.6825 44.5573 36.6825H43.7812V34.4434ZM44.5333 36.349C45.017 36.349 45.2593 36.0867 45.2593 35.5609C45.2593 35.0382 45.017 34.7769 44.5333 34.7769H44.1668V36.349H44.5333Z" fill="white"/>
</g>
<path d="M46.0225 36.6863V34.4472H47.4314V34.7716H46.398V35.3875H47.3713V35.7079H46.398V36.3628H47.4314V36.6863H46.0225Z" fill="white"/>
<mask id="mask4_5535_1158" style="mask-type:luminance" maskUnits="userSpaceOnUse" x="-520" y="-530" width="597" height="597">
<path d="M-519.209 66.2783H76.8895V-529.82H-519.209V66.2783Z" fill="white"/>
</mask>
<g mask="url(#mask4_5535_1158)">
<path d="M48.025 36.6425C47.8838 36.5965 47.7646 36.5304 47.6665 36.4463L47.7957 36.1469C47.8968 36.23 48.004 36.2901 48.1161 36.3281C48.2283 36.3672 48.3504 36.3852 48.4816 36.3852C48.6268 36.3852 48.738 36.3582 48.8181 36.3041C48.8962 36.25 48.9353 36.1749 48.9353 36.0778C48.9353 35.9927 48.8992 35.9276 48.8271 35.8845C48.754 35.8394 48.6328 35.7964 48.4636 35.7563C48.2894 35.7173 48.1462 35.6702 48.037 35.6171C47.9279 35.5641 47.8447 35.496 47.7887 35.4139C47.7336 35.3317 47.7056 35.2256 47.7056 35.0994C47.7056 34.9672 47.7396 34.8501 47.8077 34.7469C47.8748 34.6428 47.9699 34.5617 48.0931 34.5036C48.2173 34.4455 48.3595 34.4165 48.5207 34.4165C48.6679 34.4165 48.8081 34.4395 48.9413 34.4876C49.0744 34.5356 49.1846 34.6007 49.2697 34.6828L49.1415 34.9813C48.9543 34.822 48.747 34.7429 48.5207 34.7429C48.3855 34.7429 48.2783 34.772 48.1992 34.8311C48.1211 34.8891 48.0821 34.9702 48.0821 35.0734C48.0821 35.1605 48.1161 35.2276 48.1862 35.2737C48.2553 35.3207 48.3745 35.3638 48.5417 35.4038C48.718 35.4469 48.8622 35.493 48.9723 35.546C49.0835 35.5971 49.1676 35.6632 49.2267 35.7433C49.2847 35.8244 49.3148 35.9256 49.3148 36.0487C49.3148 36.1819 49.2817 36.3001 49.2146 36.4002C49.1475 36.5004 49.0514 36.5775 48.9252 36.6315C48.7991 36.6856 48.6499 36.7126 48.4786 36.7126C48.3174 36.7126 48.1662 36.6896 48.025 36.6425Z" fill="white"/>
<path d="M50.2349 36.3822L50.4432 36.3662C50.6204 36.3542 50.7095 36.25 50.7095 36.0547V34.4445H51.094V36.0517C51.094 36.251 51.045 36.4052 50.9458 36.5134C50.8487 36.6235 50.7015 36.6836 50.5062 36.6966L50.2609 36.7126L50.2349 36.3822Z" fill="white"/>
</g>
<path d="M51.5264 36.6863V34.4472H52.9353V34.7716H51.9019V35.3875H52.8752V35.7079H51.9019V36.3628H52.9353V36.6863H51.5264Z" fill="white"/>
<path d="M56.4335 35.5487L57.2336 36.6863H56.786L56.2162 35.8471L55.6424 36.6863H55.1958L55.9979 35.5457L55.2248 34.4462H55.6725L56.2162 35.2503L56.762 34.4462H57.2096L56.4335 35.5487Z" fill="white"/>
<path d="M17.0902 11.1323L14.5808 17.8726L16.4423 23.4543H12.5029L10.8496 27.8954H17.7411L18.8196 31.249H24.6787L17.0902 11.1323Z" fill="white"/>
<path d="M42.7331 31.1863H38.5803L30.0636 19.0555V31.1863H25.6465V11.4841H29.7992L38.343 23.6439V11.4841H42.7331V31.1863Z" fill="white"/>
<path d="M57.2444 11.4554V24.7958C57.2444 26.8787 56.6756 28.5019 55.539 29.6655C54.4014 30.8291 52.8363 31.4099 50.8435 31.4099C48.322 31.4099 46.1971 30.3595 44.4697 28.2576L46.6387 24.9089C47.9605 26.372 49.2563 27.104 50.5271 27.104C51.8489 27.104 52.5098 26.2979 52.5098 24.6836V15.508H46.1621V11.4554H57.2444Z" fill="white"/>
<path d="M11.6934 10.6565H17.258L21.0903 0.278173H15.5256L11.6934 10.6565Z" fill="white"/>
<path d="M9.9043 39.1956H57.2296" stroke="white" stroke-width="0.404144" stroke-miterlimit="10"/>
</svg>
