<svg width="259" height="36" viewBox="0 0 259 36" fill="none" xmlns="http://www.w3.org/2000/svg">
<g clip-path="url(#clip0_6285_7589)">
<path d="M48.3835 3.44141H3.68555V32.9474H48.3835V3.44141Z" fill="url(#paint0_linear_6285_7589)"/>
<path d="M45.5192 0H6.32519C3.01925 0 0.326172 2.69308 0.326172 6.00491V30.001C0.326172 33.3069 3.01925 36 6.32519 36H45.5192C48.831 36 51.5241 33.3069 51.5241 30.001V6.00491C51.5241 2.69308 48.831 0 45.5192 0ZM47.5228 24.002H45.5192C44.4231 24.002 43.5215 23.1062 43.5215 21.9984V14.0016C43.5215 12.8997 44.4231 12.0039 45.5192 12.0039H47.5228V24.002ZM47.5228 8.00262H45.5192C42.2191 8.00262 39.526 10.6957 39.526 14.0016V21.9984C39.526 25.3102 42.2191 27.9974 45.5192 27.9974H47.5228V30.001C47.5228 31.103 46.627 31.9987 45.5192 31.9987H27.9287V27.8029C32.484 26.8718 35.9255 22.8293 35.9255 18.0029C35.9255 13.1766 32.484 9.13406 27.9287 8.20298V4.0072H45.5192C46.627 4.0072 47.5228 4.89704 47.5228 6.00491V8.00262ZM27.9287 23.6543V12.3457C30.2505 13.1707 31.9241 15.3924 31.9241 18.0029C31.9241 20.6135 30.2505 22.8293 27.9287 23.6543ZM4.32748 12.0039H6.32519C7.42717 12.0039 8.32879 12.8997 8.32879 14.0016V21.9984C8.32879 23.1062 7.42717 24.002 6.32519 24.002H4.32748V12.0039ZM23.9215 23.6543C21.5997 22.8293 19.9261 20.6076 19.9261 18.0029C19.9261 15.3983 21.5997 13.1707 23.9215 12.3457V23.6543ZM23.9215 8.20298C19.3663 9.13406 15.9248 13.1707 15.9248 18.0029C15.9248 22.8352 19.3663 26.8718 23.9215 27.8029V31.9987H6.32519C5.22321 31.9987 4.32748 31.103 4.32748 30.001V27.9974H6.32519C9.63702 27.9974 12.3242 25.3102 12.3242 21.9984V14.0016C12.3242 10.6957 9.63702 8.00262 6.32519 8.00262H4.32748V6.00491C4.32748 4.89704 5.22321 4.0072 6.32519 4.0072H23.9215V8.20298Z" fill="#48B552"/>
<path d="M26.5674 1.03125V33.7135H48.8722V1.03125H26.5674ZM27.9287 12.3457C30.2505 13.1707 31.9241 15.3924 31.9241 18.0029C31.9241 20.6135 30.2505 22.8293 27.9287 23.6543V12.3457ZM47.5227 24.0019H45.5191C44.423 24.0019 43.5214 23.1062 43.5214 21.9983V14.0016C43.5214 12.8996 44.423 12.0039 45.5191 12.0039H47.5227V24.0019ZM47.5227 8.0026H45.5191C42.219 8.0026 39.526 10.6957 39.526 14.0016V21.9983C39.526 25.3102 42.219 27.9974 45.5191 27.9974H47.5227V30.001C47.5227 31.1029 46.627 31.9987 45.5191 31.9987H27.9287V27.8029C32.4839 26.8718 35.9254 22.8293 35.9254 18.0029C35.9254 13.1766 32.4839 9.13405 27.9287 8.20296V4.00719H45.5191C46.627 4.00719 47.5227 4.89702 47.5227 6.00489V8.0026Z" fill="#81E286"/>
<path d="M45.5192 0H6.32519C3.01925 0 0.326172 2.69308 0.326172 6.00491V30.001C0.326172 33.3069 3.01925 36 6.32519 36H45.5192C48.831 36 51.5241 33.3069 51.5241 30.001V6.00491C51.5241 2.69308 48.831 0 45.5192 0ZM47.5228 24.002H45.5192C44.4231 24.002 43.5215 23.1062 43.5215 21.9984V14.0016C43.5215 12.8997 44.4231 12.0039 45.5192 12.0039H47.5228V24.002ZM47.5228 8.00262H45.5192C42.2191 8.00262 39.526 10.6957 39.526 14.0016V21.9984C39.526 25.3102 42.2191 27.9974 45.5192 27.9974H47.5228V30.001C47.5228 31.103 46.627 31.9987 45.5192 31.9987H27.9287V27.8029C32.484 26.8718 35.9255 22.8293 35.9255 18.0029C35.9255 13.1766 32.484 9.13406 27.9287 8.20298V4.0072H45.5192C46.627 4.0072 47.5228 4.89704 47.5228 6.00491V8.00262ZM27.9287 23.6543V12.3457C30.2505 13.1707 31.9241 15.3924 31.9241 18.0029C31.9241 20.6135 30.2505 22.8293 27.9287 23.6543ZM4.32748 12.0039H6.32519C7.42717 12.0039 8.32879 12.8997 8.32879 14.0016V21.9984C8.32879 23.1062 7.42717 24.002 6.32519 24.002H4.32748V12.0039ZM23.9215 23.6543C21.5997 22.8293 19.9261 20.6076 19.9261 18.0029C19.9261 15.3983 21.5997 13.1707 23.9215 12.3457V23.6543ZM23.9215 8.20298C19.3663 9.13406 15.9248 13.1707 15.9248 18.0029C15.9248 22.8352 19.3663 26.8718 23.9215 27.8029V31.9987H6.32519C5.22321 31.9987 4.32748 31.103 4.32748 30.001V27.9974H6.32519C9.63702 27.9974 12.3242 25.3102 12.3242 21.9984V14.0016C12.3242 10.6957 9.63702 8.00262 6.32519 8.00262H4.32748V6.00491C4.32748 4.89704 5.22321 4.0072 6.32519 4.0072H23.9215V8.20298Z" fill="#0E1A1E"/>
<path d="M23.9217 12.3438V23.6523C21.5999 22.8273 19.9263 20.6057 19.9263 18.001C19.9263 15.3963 21.5999 13.1688 23.9217 12.3438Z" fill="#FDEFD3"/>
<path d="M31.9241 18.001C31.9241 20.6057 30.2505 22.8273 27.9287 23.6523V12.3438C30.2505 13.1688 31.9241 15.3904 31.9241 18.001Z" fill="#FDEFD3"/>
<path d="M47.5228 12.0039V24.0019H45.5192C44.4231 24.0019 43.5215 23.1062 43.5215 21.9983V14.0016C43.5215 12.8996 44.4231 12.0039 45.5192 12.0039H47.5228Z" fill="#DA3B1D"/>
<path d="M8.32895 14.0016V21.9983C8.32895 23.1062 7.42733 24.0019 6.32535 24.0019H4.32764V12.0039H6.32535C7.42733 12.0039 8.32895 12.8996 8.32895 14.0016Z" fill="#0E394D"/>
</g>
<g filter="url(#filter0_d_6285_7589)">
<path d="M59.3074 24C58.7736 24 58.5067 23.7331 58.5067 23.1993V11.8747C58.5067 11.3409 58.7736 11.074 59.3074 11.074H66.3233C66.5711 11.074 66.7649 11.1471 66.9047 11.2933C67.0509 11.4331 67.124 11.6269 67.124 11.8747C67.124 12.4086 66.8571 12.6755 66.3233 12.6755H60.1081V16.6791H63.9402C64.474 16.6791 64.7409 16.946 64.7409 17.4798C64.7409 18.0136 64.474 18.2805 63.9402 18.2805H60.1081V23.1993C60.1081 23.7331 59.8412 24 59.3074 24ZM77.4126 24.0381C77.2029 24.1716 77.0027 24.2129 76.8121 24.1621C76.6214 24.1112 76.4594 23.9809 76.3259 23.7712L73.3709 18.8525H70.7018V23.1993C70.7018 23.7331 70.4349 24 69.9011 24C69.3672 24 69.1003 23.7331 69.1003 23.1993V11.8747C69.1003 11.3409 69.3672 11.074 69.9011 11.074H74.3622C75.5252 11.074 76.4149 11.3854 77.0313 12.0082C77.6541 12.6246 77.9655 13.5143 77.9655 14.6773V15.2492C77.9655 16.2597 77.7304 17.0667 77.2601 17.6705C76.7898 18.2678 76.1098 18.6396 75.2202 18.7858L77.7177 22.9514C77.9591 23.3963 77.8575 23.7585 77.4126 24.0381ZM70.7018 17.251H74.3622C75.0867 17.251 75.6015 17.0985 75.9065 16.7935C76.2115 16.4884 76.364 15.9737 76.364 15.2492V14.6773C76.364 13.9592 76.2115 13.4476 75.9065 13.1426C75.6015 12.8312 75.0867 12.6755 74.3622 12.6755H70.7018V17.251ZM80.4058 23.9237C79.8974 23.7267 79.7449 23.3772 79.9482 22.8752L84.4857 11.7032C84.6763 11.2837 84.975 11.074 85.3817 11.074H85.4199C85.8329 11.0931 86.1125 11.3028 86.2587 11.7032L90.8724 22.8752C91.0758 23.3772 90.9296 23.7267 90.4339 23.9237C89.9319 24.1207 89.5824 23.9746 89.3853 23.4852L88.3558 20.9878H82.4171L81.4353 23.4852C81.2383 23.9809 80.8951 24.1271 80.4058 23.9237ZM83.0463 19.3863H87.6981L85.3245 13.6096L83.0463 19.3863ZM94.5141 24C93.9803 24 93.7134 23.7331 93.7134 23.1993V11.8747C93.7134 11.3409 93.9803 11.074 94.5141 11.074C94.7874 11.074 95.0543 11.2329 95.3148 11.5506L102.979 21.4262H102.579V11.8747C102.579 11.3409 102.845 11.074 103.379 11.074C103.913 11.074 104.18 11.3409 104.18 11.8747V23.1993C104.18 23.7331 103.913 24 103.379 24C103.093 24 102.826 23.8411 102.579 23.5234L94.9145 13.6478H95.3148V23.1993C95.3148 23.7331 95.0479 24 94.5141 24ZM111.955 24C110.5 24 109.423 23.6537 108.724 22.961C108.031 22.2619 107.685 21.1848 107.685 19.7295V15.3446C107.685 13.8766 108.031 12.7962 108.724 12.1035C109.417 11.4045 110.487 11.0613 111.936 11.074H114.243C115.438 11.074 116.35 11.3219 116.979 11.8176C117.608 12.3069 117.973 13.0822 118.075 14.1435C118.113 14.4104 118.062 14.6137 117.923 14.7535C117.783 14.8933 117.579 14.9633 117.313 14.9633C116.83 14.9633 116.55 14.6963 116.474 14.1625C116.41 13.5779 116.207 13.1839 115.864 12.9805C115.527 12.7771 114.987 12.6755 114.243 12.6755H111.936C111.263 12.6691 110.732 12.7454 110.344 12.9042C109.963 13.0631 109.69 13.3396 109.525 13.7336C109.366 14.1212 109.286 14.6582 109.286 15.3446V19.7295C109.286 20.4095 109.366 20.9433 109.525 21.3309C109.69 21.7186 109.966 21.995 110.354 22.1602C110.742 22.3191 111.275 22.3986 111.955 22.3986H114.243C114.987 22.3986 115.527 22.2969 115.864 22.0935C116.207 21.8838 116.41 21.4898 116.474 20.9115C116.55 20.3777 116.83 20.1108 117.313 20.1108C117.579 20.1108 117.783 20.1807 117.923 20.3205C118.062 20.4603 118.113 20.6636 118.075 20.9306C117.973 21.9982 117.608 22.7767 116.979 23.266C116.35 23.7553 115.438 24 114.243 24H111.955ZM122.218 24C121.684 24 121.417 23.7331 121.417 23.1993V11.8747C121.417 11.3409 121.684 11.074 122.218 11.074H129.062C129.596 11.074 129.863 11.3409 129.863 11.8747C129.863 12.4086 129.596 12.6755 129.062 12.6755H123.018V16.6791H126.812C127.346 16.6791 127.613 16.946 127.613 17.4798C127.613 18.0136 127.346 18.2805 126.812 18.2805H123.018V22.3986H129.062C129.596 22.3986 129.863 22.6655 129.863 23.1993C129.863 23.7331 129.596 24 129.062 24H122.218Z" fill="#FFC652"/>
<path d="M137.882 24C137.348 24 137.081 23.7331 137.081 23.1993V11.8747C137.081 11.3409 137.348 11.074 137.882 11.074H142.343C143.506 11.074 144.396 11.3854 145.012 12.0082C145.635 12.6246 145.947 13.5143 145.947 14.6773V15.2492C145.947 16.4122 145.635 17.3051 145.012 17.9278C144.396 18.5443 143.506 18.8525 142.343 18.8525H138.683V23.1993C138.683 23.7331 138.416 24 137.882 24ZM138.683 17.251H142.343C143.068 17.251 143.582 17.0985 143.888 16.7935C144.193 16.4884 144.345 15.9737 144.345 15.2492V14.6773C144.345 13.9592 144.193 13.4476 143.888 13.1426C143.582 12.8312 143.068 12.6755 142.343 12.6755H138.683V17.251ZM147.028 23.9237C146.519 23.7267 146.367 23.3772 146.57 22.8752L151.108 11.7032C151.298 11.2837 151.597 11.074 152.004 11.074H152.042C152.455 11.0931 152.734 11.3028 152.881 11.7032L157.494 22.8752C157.698 23.3772 157.552 23.7267 157.056 23.9237C156.554 24.1207 156.204 23.9746 156.007 23.4852L154.978 20.9878H149.039L148.057 23.4852C147.86 23.9809 147.517 24.1271 147.028 23.9237ZM149.668 19.3863H154.32L151.946 13.6096L149.668 19.3863ZM168.648 24.0381C168.438 24.1716 168.238 24.2129 168.047 24.1621C167.856 24.1112 167.694 23.9809 167.561 23.7712L164.606 18.8525H161.937V23.1993C161.937 23.7331 161.67 24 161.136 24C160.602 24 160.335 23.7331 160.335 23.1993V11.8747C160.335 11.3409 160.602 11.074 161.136 11.074H165.597C166.76 11.074 167.65 11.3854 168.266 12.0082C168.889 12.6246 169.2 13.5143 169.2 14.6773V15.2492C169.2 16.2597 168.965 17.0667 168.495 17.6705C168.025 18.2678 167.345 18.6396 166.455 18.7858L168.953 22.9514C169.194 23.3963 169.092 23.7585 168.648 24.0381ZM161.937 17.251H165.597C166.322 17.251 166.836 17.0985 167.141 16.7935C167.446 16.4884 167.599 15.9737 167.599 15.2492V14.6773C167.599 13.9592 167.446 13.4476 167.141 13.1426C166.836 12.8312 166.322 12.6755 165.597 12.6755H161.937V17.251ZM173.052 24C172.778 24 172.575 23.9365 172.441 23.8094C172.314 23.6759 172.251 23.4725 172.251 23.1993V11.8938C172.251 11.6142 172.314 11.4108 172.441 11.2837C172.575 11.1566 172.778 11.0931 173.052 11.0931C173.331 11.0931 173.535 11.1566 173.662 11.2837C173.789 11.4108 173.852 11.6142 173.852 11.8938V23.1993C173.852 23.4725 173.789 23.6759 173.662 23.8094C173.535 23.9365 173.331 24 173.052 24ZM181.049 24C179.962 24 179.114 23.7808 178.504 23.3423C177.9 22.9038 177.522 22.227 177.37 21.3119C177.344 21.0322 177.401 20.8225 177.541 20.6827C177.681 20.5429 177.884 20.473 178.151 20.473C178.418 20.473 178.612 20.5365 178.733 20.6636C178.86 20.7907 178.946 20.9878 178.99 21.2547C179.085 21.6932 179.289 21.995 179.6 22.1602C179.918 22.3191 180.401 22.3986 181.049 22.3986H183.794C184.614 22.3986 185.17 22.2524 185.463 21.9601C185.761 21.6614 185.911 21.1085 185.911 20.3014C185.911 19.4816 185.758 18.9224 185.453 18.6237C185.148 18.3187 184.595 18.1662 183.794 18.1662H181.43C180.229 18.1662 179.336 17.8738 178.752 17.2892C178.174 16.6982 177.884 15.8021 177.884 14.601C177.884 13.4063 178.17 12.5198 178.742 11.9415C179.321 11.3632 180.21 11.074 181.411 11.074H183.68C184.691 11.074 185.482 11.2806 186.054 11.6936C186.632 12.1067 186.997 12.739 187.15 13.5906C187.188 13.8638 187.137 14.0736 186.997 14.2197C186.858 14.3595 186.648 14.4294 186.368 14.4294C186.114 14.4294 185.923 14.3627 185.796 14.2293C185.669 14.0958 185.587 13.902 185.548 13.6478C185.447 13.2728 185.253 13.0186 184.967 12.8852C184.681 12.7454 184.252 12.6755 183.68 12.6755H181.411C180.649 12.6755 180.137 12.8121 179.877 13.0854C179.616 13.3523 179.486 13.8575 179.486 14.601C179.486 15.3509 179.619 15.8657 179.886 16.1453C180.153 16.4249 180.668 16.5647 181.43 16.5647H183.794C185.046 16.5647 185.977 16.8697 186.587 17.4798C187.204 18.0899 187.512 19.0304 187.512 20.3014C187.512 21.5661 187.207 22.5002 186.597 23.104C185.987 23.7013 185.053 24 183.794 24H181.049Z" fill="#FDEFD3"/>
<path d="M197.888 24C196.801 24 195.952 23.7808 195.342 23.3423C194.739 22.9038 194.361 22.227 194.208 21.3119C194.183 21.0322 194.24 20.8225 194.38 20.6827C194.519 20.5429 194.723 20.473 194.99 20.473C195.257 20.473 195.45 20.5365 195.571 20.6636C195.698 20.7907 195.784 20.9878 195.829 21.2547C195.924 21.6932 196.127 21.995 196.439 22.1602C196.756 22.3191 197.239 22.3986 197.888 22.3986H200.633C201.453 22.3986 202.009 22.2524 202.301 21.9601C202.6 21.6614 202.749 21.1085 202.749 20.3014C202.749 19.4816 202.597 18.9224 202.292 18.6237C201.987 18.3187 201.434 18.1662 200.633 18.1662H198.269C197.068 18.1662 196.175 17.8738 195.59 17.2892C195.012 16.6982 194.723 15.8021 194.723 14.601C194.723 13.4063 195.009 12.5198 195.581 11.9415C196.159 11.3632 197.049 11.074 198.25 11.074H200.519C201.529 11.074 202.32 11.2806 202.892 11.6936C203.47 12.1067 203.836 12.739 203.988 13.5906C204.026 13.8638 203.976 14.0736 203.836 14.2197C203.696 14.3595 203.486 14.4294 203.207 14.4294C202.952 14.4294 202.762 14.3627 202.635 14.2293C202.508 14.0958 202.425 13.902 202.387 13.6478C202.285 13.2728 202.091 13.0186 201.805 12.8852C201.519 12.7454 201.09 12.6755 200.519 12.6755H198.25C197.487 12.6755 196.976 12.8121 196.715 13.0854C196.455 13.3523 196.324 13.8575 196.324 14.601C196.324 15.3509 196.458 15.8657 196.725 16.1453C196.992 16.4249 197.506 16.5647 198.269 16.5647H200.633C201.885 16.5647 202.816 16.8697 203.426 17.4798C204.042 18.0899 204.351 19.0304 204.351 20.3014C204.351 21.5661 204.046 22.5002 203.435 23.104C202.825 23.7013 201.891 24 200.633 24H197.888ZM208.657 24C208.123 24 207.856 23.7331 207.856 23.1993V11.8747C207.856 11.3409 208.123 11.074 208.657 11.074H213.118C214.281 11.074 215.171 11.3854 215.787 12.0082C216.41 12.6246 216.721 13.5143 216.721 14.6773V15.2492C216.721 16.4122 216.41 17.3051 215.787 17.9278C215.171 18.5443 214.281 18.8525 213.118 18.8525H209.458V23.1993C209.458 23.7331 209.191 24 208.657 24ZM209.458 17.251H213.118C213.843 17.251 214.357 17.0985 214.662 16.7935C214.967 16.4884 215.12 15.9737 215.12 15.2492V14.6773C215.12 13.9592 214.967 13.4476 214.662 13.1426C214.357 12.8312 213.843 12.6755 213.118 12.6755H209.458V17.251ZM223.361 24C221.906 24 220.829 23.6537 220.13 22.961C219.437 22.2619 219.091 21.1848 219.091 19.7295V15.3255C219.091 13.8575 219.44 12.7803 220.139 12.094C220.838 11.4013 221.912 11.0613 223.361 11.074H225.649C227.111 11.074 228.188 11.4204 228.881 12.1131C229.573 12.8057 229.92 13.8829 229.92 15.3446V19.7295C229.92 21.1848 229.573 22.2619 228.881 22.961C228.188 23.6537 227.111 24 225.649 24H223.361ZM223.361 22.3986H225.649C226.329 22.3986 226.863 22.3191 227.251 22.1602C227.638 21.995 227.912 21.7186 228.07 21.3309C228.236 20.9433 228.318 20.4095 228.318 19.7295V15.3446C228.318 14.6709 228.236 14.1403 228.07 13.7526C227.912 13.365 227.638 13.0885 227.251 12.9233C226.863 12.7581 226.329 12.6755 225.649 12.6755H223.361C222.688 12.6691 222.157 12.7454 221.769 12.9042C221.382 13.0631 221.105 13.3364 220.94 13.724C220.775 14.1117 220.692 14.6455 220.692 15.3255V19.7295C220.692 20.4095 220.772 20.9433 220.931 21.3309C221.096 21.7186 221.372 21.995 221.76 22.1602C222.148 22.3191 222.681 22.3986 223.361 22.3986ZM241.731 24.0381C241.521 24.1716 241.321 24.2129 241.131 24.1621C240.94 24.1112 240.778 23.9809 240.644 23.7712L237.689 18.8525H235.02V23.1993C235.02 23.7331 234.753 24 234.22 24C233.686 24 233.419 23.7331 233.419 23.1993V11.8747C233.419 11.3409 233.686 11.074 234.22 11.074H238.681C239.844 11.074 240.733 11.3854 241.35 12.0082C241.973 12.6246 242.284 13.5143 242.284 14.6773V15.2492C242.284 16.2597 242.049 17.0667 241.579 17.6705C241.108 18.2678 240.428 18.6396 239.539 18.7858L242.036 22.9514C242.278 23.3963 242.176 23.7585 241.731 24.0381ZM235.02 17.251H238.681C239.405 17.251 239.92 17.0985 240.225 16.7935C240.53 16.4884 240.683 15.9737 240.683 15.2492V14.6773C240.683 13.9592 240.53 13.4476 240.225 13.1426C239.92 12.8312 239.405 12.6755 238.681 12.6755H235.02V17.251ZM248.832 24C248.565 24 248.365 23.9333 248.232 23.7998C248.098 23.6664 248.031 23.4662 248.031 23.1993V12.6945H244.333C244.066 12.6945 243.866 12.6278 243.732 12.4944C243.599 12.3609 243.532 12.1607 243.532 11.8938C243.532 11.6269 243.599 11.4267 243.732 11.2933C243.866 11.1598 244.066 11.0931 244.333 11.0931H253.331C253.598 11.0931 253.799 11.1598 253.932 11.2933C254.065 11.4267 254.132 11.6269 254.132 11.8938C254.132 12.1607 254.065 12.3609 253.932 12.4944C253.799 12.6278 253.598 12.6945 253.331 12.6945H249.633V23.1993C249.633 23.4535 249.563 23.6505 249.423 23.7903C249.29 23.9301 249.093 24 248.832 24Z" fill="#FFC652"/>
</g>
<defs>
<filter id="filter0_d_6285_7589" x="52.5239" y="9.05469" width="207.149" height="21.1836" filterUnits="userSpaceOnUse" color-interpolation-filters="sRGB">
<feFlood flood-opacity="0" result="BackgroundImageFix"/>
<feColorMatrix in="SourceAlpha" type="matrix" values="0 0 0 0 0 0 0 0 0 0 0 0 0 0 0 0 0 0 127 0" result="hardAlpha"/>
<feOffset dy="2"/>
<feGaussianBlur stdDeviation="2"/>
<feComposite in2="hardAlpha" operator="out"/>
<feColorMatrix type="matrix" values="0 0 0 0 0 0 0 0 0 0 0 0 0 0 0 0 0 0 0.45 0"/>
<feBlend mode="normal" in2="BackgroundImageFix" result="effect1_dropShadow_6285_7589"/>
<feBlend mode="normal" in="SourceGraphic" in2="effect1_dropShadow_6285_7589" result="shape"/>
</filter>
<linearGradient id="paint0_linear_6285_7589" x1="26.0345" y1="3.44141" x2="26.0345" y2="32.9474" gradientUnits="userSpaceOnUse">
<stop stop-color="#FFC652"/>
<stop offset="1" stop-color="#997731"/>
</linearGradient>
<clipPath id="clip0_6285_7589">
<rect width="51.1979" height="36" fill="white" transform="translate(0.326172)"/>
</clipPath>
</defs>
</svg>
