<svg width="167" height="24" viewBox="0 0 167 24" fill="none" xmlns="http://www.w3.org/2000/svg">
<g id="New GambleAware Logo" clip-path="url(#clip0_5535_1256)">
<path id="Vector" d="M10.3512 0.456447C10.9406 0.540761 11.5243 0.681769 12.0803 0.895461C12.5768 1.08662 13.0492 1.34029 13.4824 1.6492C14.3386 2.26047 15.0328 3.08689 15.4907 4.03397C15.8963 4.87275 16.1121 5.79657 16.1376 6.72693C15.2188 6.921 14.2819 7.1187 13.2767 7.33094C13.1241 6.82796 13.0063 6.40348 12.866 5.98627C12.3514 4.45627 11.3956 3.39508 9.72244 3.15376C8.07468 2.91681 6.63408 3.38635 5.67901 4.75718C5.0968 5.59378 4.62 6.57066 4.36633 7.55408C3.70781 10.1097 3.71871 12.7103 4.306 15.2891C4.44337 15.8924 4.66288 16.4906 4.93254 17.0488C5.85636 18.9597 7.56735 19.8421 9.64103 19.5288C11.6108 19.2308 12.8326 17.9632 13.167 15.8336C13.2462 15.3269 13.2462 14.8087 13.292 14.172H8.88148V11.5757H16.2175V21.8322H13.6939C13.6103 21.1213 13.5282 20.4185 13.4461 19.7134C13.3494 19.7389 13.2498 19.7352 13.228 19.7752C11.3935 23.086 5.28942 23.1732 2.75201 19.7549C1.92849 18.645 1.3601 17.4268 1.05265 16.0989C0.310538 12.8957 0.343973 9.68591 1.25035 6.52269C1.56071 5.43823 2.01208 4.38431 2.67423 3.46631C3.33639 2.5483 4.20061 1.80329 5.2051 1.28796C6.51706 0.613445 8.01436 0.30599 9.48476 0.374314C9.70645 0.384489 9.92741 0.403387 10.1476 0.429554C10.216 0.437549 10.2836 0.446998 10.3512 0.456447Z" fill="#D4D4D4"/>
<path id="Vector_2" d="M166.745 14.9701C164.309 14.9475 161.872 14.9243 159.435 14.9046C158.712 14.8988 157.989 14.9039 157.313 14.9039C156.749 16.6265 157.715 18.8376 159.267 19.6131C161.012 20.4839 162.836 19.8588 164.336 17.8062C164.998 18.0839 165.687 18.3717 166.421 18.6792C166.262 19.4591 165.792 19.9744 165.314 20.4621C163.108 22.7139 158.277 22.8505 156.002 20.1299C154.953 18.8769 154.517 17.4035 154.352 15.8227C154.116 13.56 154.407 11.3976 155.557 9.38863C157.682 5.67664 163.239 5.9543 165.155 8.55349C165.9 9.5638 166.282 10.6875 166.473 11.9035C166.526 12.2364 166.652 12.5584 166.745 12.8855V14.9701ZM157.209 12.9291C158.016 13.2351 162.883 13.2467 163.872 12.9109C163.872 12.5722 163.908 12.1942 163.866 11.825C163.623 9.7019 161.838 8.41393 159.883 8.93581C158.288 9.36101 157.131 11.088 157.209 12.9298V12.9291Z" fill="#DA4D18"/>
<path id="Vector_3" d="M46.119 21.8539H43.0161C43.0161 21.4476 43.0161 21.0799 43.0161 20.7121C43.0161 17.8294 43.0161 14.946 43.0161 12.0634C43.0161 11.7857 43.0255 11.5066 43.0088 11.2297C42.9281 9.88937 42.1344 9.132 40.7788 9.13709C39.4415 9.14217 38.3984 9.8036 37.3809 10.7318V21.806H34.3579V6.90567H37.1832C37.2246 7.34469 37.2624 7.74954 37.3162 8.31502C37.652 8.07299 37.9107 7.88691 38.1695 7.70084C39.3659 6.83735 40.6887 6.37726 42.178 6.47175C43.7465 6.57133 44.9691 7.26401 45.7563 8.69153C46.0506 8.42841 46.2781 8.2169 46.5151 8.01557C47.5501 7.13245 48.7407 6.59822 50.1013 6.47538C52.9186 6.22099 54.8171 7.91163 54.8629 10.7318C54.8869 12.1906 54.8673 13.6493 54.8673 15.1081C54.8673 16.9841 54.8673 18.8593 54.8673 20.7353C54.8673 21.0755 54.8673 21.4149 54.8673 21.8271H51.7702C51.7702 21.4338 51.7702 21.0631 51.7702 20.6932C51.7702 17.7407 51.7048 14.7861 51.7891 11.8366C51.8668 9.11891 49.7866 8.74241 48.1774 9.39875C47.4535 9.69385 46.8095 10.1866 46.1182 10.5966V21.8547L46.119 21.8539Z" fill="#D4D4D4"/>
<path id="Vector_4" d="M126.004 21.7159C125.644 21.7421 125.371 21.7755 125.098 21.7792C124.476 21.7879 123.854 21.7821 123.116 21.7821C122.205 18.2416 121.308 14.7528 120.411 11.2632C120.323 11.269 120.235 11.2741 120.147 11.2799C119.532 12.9596 119.203 14.723 118.75 16.45C118.294 18.1871 117.838 19.9243 117.369 21.713H114.49C113.237 16.8693 111.977 11.998 110.669 6.94647C111.266 6.93557 111.7 6.92467 112.134 6.92103C112.549 6.9174 112.965 6.92031 113.496 6.92031C114.32 10.4644 115.137 13.9823 115.954 17.5002C116.048 17.5053 116.142 17.5104 116.236 17.5155C116.831 15.8161 117.162 14.0368 117.634 12.3011C118.114 10.5364 118.54 8.75704 118.995 6.96464H121.724C122.609 10.4608 123.501 13.9845 124.394 17.5075C124.501 17.5075 124.609 17.5068 124.716 17.5061C125.564 14.0041 126.412 10.5029 127.267 6.96973C127.654 6.95011 127.962 6.92612 128.27 6.92176C128.749 6.91449 129.229 6.91958 129.828 6.91958C128.541 11.8977 127.286 16.7545 126.004 21.7145L126.004 21.7159Z" fill="#DA4D18"/>
<path id="Vector_5" d="M61.3762 20.627C61.233 21.1024 61.1349 21.4258 61.0157 21.822H58.5117V0.848877H61.5216V7.69284C62.5595 7.28508 63.4833 6.77629 64.4704 6.5655C66.7701 6.07416 68.9783 7.18768 70.0525 9.2759C70.3513 9.85665 70.5991 10.4861 70.7365 11.1228C71.2264 13.3964 71.2111 15.6714 70.5526 17.9174C70.2459 18.9626 69.7444 19.9074 68.9768 20.6997C67.0732 22.6658 63.9776 22.825 61.8857 21.0609C61.7549 20.9505 61.6248 20.8393 61.3762 20.6285V20.627ZM61.5579 18.4828C62.1423 18.839 62.6933 19.278 63.3183 19.536C64.8781 20.1793 66.382 19.6676 67.0987 18.147C68.2471 15.7092 68.2725 13.1783 67.2128 10.7042C66.6168 9.31297 65.2387 8.74458 63.753 9.07602C62.8786 9.27082 62.1488 9.70183 61.5579 10.3996V18.4836V18.4828Z" fill="#D4D4D4"/>
<path id="Vector_6" d="M111.044 21.7268H108.027C107.771 20.8226 107.509 19.9024 107.251 18.9808C107.001 18.0875 106.756 17.1928 106.496 16.253H99.2821C98.7806 18.0352 98.2696 19.8508 97.7463 21.7123H95.1129C95.081 20.9695 100.268 2.21834 100.877 0.923828H105.146C107.101 7.8194 109.061 14.7339 111.043 21.7268H111.044ZM102.754 3.31732C101.799 6.85269 100.878 10.2652 99.9065 13.866C101.954 13.9561 103.818 14.0034 105.686 13.8464C105.641 12.6485 103.266 4.02527 102.754 3.31732Z" fill="#DA4D18"/>
<path id="Vector_7" d="M27.8668 12.1347C28.3138 9.93597 26.6959 8.75048 24.7537 9.01506C23.4047 9.19895 22.478 9.97885 21.7432 11.1723C21.001 10.7886 20.2749 10.4128 19.4209 9.97086C19.6971 9.52457 19.8955 9.09065 20.1935 8.74176C21.8624 6.78801 24.0662 6.29811 26.5105 6.51617C26.7867 6.54088 27.0615 6.59903 27.334 6.65572C29.657 7.13834 31.0191 8.75484 31.0577 11.1331C31.086 12.9029 31.0642 14.6735 31.0642 16.4434C31.0642 18.2075 31.0642 19.9722 31.0642 21.8191H28.268C28.1612 21.4572 28.0478 21.0734 27.909 20.6031C27.6139 20.8335 27.3842 21.0262 27.1407 21.1999C25.5533 22.333 23.8023 22.5794 21.9794 21.9732C20.405 21.4499 19.4267 20.316 19.1774 18.6516C18.9172 16.9122 19.5052 15.4825 20.9822 14.5129C21.6399 14.0812 22.3937 13.7599 23.146 13.5157C24.6956 13.0127 26.2736 12.5948 27.8661 12.1339L27.8668 12.1347ZM27.9562 14.3654C26.6523 14.7724 25.469 15.1278 24.2973 15.5159C23.939 15.6344 23.5843 15.8045 23.2739 16.0175C22.5267 16.5328 22.1538 17.2495 22.345 18.1667C22.5311 19.0571 23.0682 19.6335 23.9767 19.8596C25.1789 20.159 27.1022 19.4467 27.7774 18.4175C27.8675 18.2801 27.946 18.1035 27.9475 17.9443C27.962 16.8083 27.9555 15.6715 27.9555 14.3654H27.9562Z" fill="#D4D4D4"/>
<path id="Vector_8" d="M92.2247 15.013H82.8811C82.5366 16.9711 83.4822 18.9147 85.0064 19.5725C86.7603 20.3291 88.3237 19.7331 89.8588 17.6616C90.5893 17.9705 91.3438 18.2896 92.2058 18.6537C91.5669 20.0718 90.6344 21.0727 89.2788 21.6825C84.9839 23.6145 80.6432 21.2362 79.8495 16.4718C79.5326 14.5682 79.6561 12.666 80.2914 10.822C81.4507 7.45744 84.5521 5.78062 87.9988 6.68336C89.7702 7.14781 90.9767 8.29477 91.6403 9.98032C92.2603 11.5561 92.3534 13.2039 92.2247 15.0123V15.013ZM82.8746 12.9466H89.2374C89.5499 10.8024 88.4044 9.12337 86.5321 8.95111C84.51 8.76504 82.8506 10.5574 82.8746 12.9466Z" fill="#D4D4D4"/>
<path id="Vector_9" d="M139.317 12.1768C139.643 10.1308 138.638 8.89659 136.694 8.85734C135.552 8.83408 134.592 9.26655 133.806 10.0799C133.544 10.3503 133.309 10.6476 133.003 11.0001C132.364 10.657 131.734 10.319 130.98 9.9149C131.194 9.53985 131.336 9.19605 131.559 8.91839C132.341 7.94806 133.32 7.24375 134.536 6.91667C136.078 6.50237 137.633 6.49364 139.174 6.91667C140.976 7.41165 142.064 8.69671 142.229 10.5676C142.311 11.498 142.29 12.4378 142.305 13.3739C142.345 15.939 142.38 18.504 142.412 21.069C142.414 21.2682 142.38 21.4681 142.359 21.7225H139.778C139.648 21.3409 139.511 20.9346 139.343 20.4396C139.042 20.6547 138.821 20.8052 138.609 20.9658C136.957 22.2167 135.141 22.506 133.204 21.7937C130.419 20.7703 129.693 17.054 131.859 15.0377C132.641 14.3101 133.578 13.8733 134.593 13.5855C135.829 13.2351 137.067 12.8913 138.301 12.5337C138.66 12.4291 139.009 12.2859 139.317 12.1761V12.1768ZM139.423 14.2411C138.258 14.5827 137.33 14.8429 136.409 15.1293C135.948 15.2725 135.491 15.4433 135.05 15.6388C134.801 15.7493 134.569 15.9164 134.36 16.0938C133.66 16.6869 133.432 17.4472 133.642 18.3303C133.855 19.2258 134.457 19.7622 135.325 19.9875C136.546 20.3044 138.49 19.5463 139.213 18.4967C139.307 18.3594 139.411 18.19 139.413 18.0345C139.43 16.8352 139.423 15.6359 139.423 14.2418V14.2411Z" fill="#DA4D18"/>
<path id="Vector_10" d="M73.8003 21.8336V0.842345C74.155 0.818359 74.4581 0.784924 74.7619 0.780563C75.4146 0.771841 76.0681 0.777656 76.7804 0.777656V21.8336H73.8003Z" fill="#D4D4D4"/>
<path id="Vector_11" d="M153.663 6.82292V9.22223C153.407 9.30509 153.159 9.42866 152.901 9.46209C151.347 9.66706 150.125 10.5022 148.958 11.4624C148.521 11.8214 148.507 12.2844 148.508 12.7801C148.513 15.3495 148.51 17.9189 148.51 20.489C148.51 20.8655 148.51 21.2413 148.51 21.7H145.78V6.92105H148.279V9.5435C148.361 9.57984 148.443 9.61691 148.525 9.65325C148.738 9.46863 148.962 9.29564 149.161 9.09794C150.341 7.927 151.629 6.95303 153.359 6.76914C153.424 6.76259 153.492 6.79094 153.664 6.82292H153.663Z" fill="#DA4D18"/>
</g>
<defs>
<clipPath id="clip0_5535_1256">
<rect width="166.308" height="23" fill="white" transform="translate(0.53125 0.364868)"/>
</clipPath>
</defs>
</svg>
