<svg width="104" height="32" viewBox="0 0 104 32" fill="none" xmlns="http://www.w3.org/2000/svg">
<g id="Layer_1" clip-path="url(#clip0_5535_1268)">
<g id="2rTc37">
<g id="Group">
<path id="Vector" d="M0.841146 10.8886C0.841146 7.73816 0.841146 4.58776 0.841146 1.43736C0.842278 0.735509 0.868314 0.709473 1.57922 0.709473C5.61599 0.709473 9.65389 0.709473 13.6907 0.709473C19.4119 0.711737 24.3203 4.89793 25.21 10.5637C25.3346 11.3595 25.3776 12.1757 25.3799 12.9828C25.3866 15.3589 25.4466 17.7395 25.3165 20.11C25.038 25.1553 21.4382 29.5034 16.4822 30.589C12.6051 31.438 8.80375 31.1528 5.49713 28.6171C2.41578 26.2557 0.842278 23.1109 0.838882 19.2077C0.83775 16.4343 0.838882 13.662 0.838882 10.8886H0.841146ZM17.1467 18.4448C17.1467 18.9644 17.1773 19.3798 17.141 19.7907C16.995 21.4446 16.0656 22.5313 14.5283 22.7442C13.8107 22.8438 13.059 22.8517 12.339 22.7657C10.6286 22.563 9.47729 21.5069 9.38107 19.7964C9.24297 17.315 9.25316 14.8223 9.30296 12.3364C9.32787 11.0663 9.82596 9.94446 11.0485 9.3026C13.4122 8.06078 15.88 8.92225 16.9022 11.3595C17.0663 11.7512 17.2882 11.8678 17.6923 11.7432C18.6806 11.4398 19.6779 11.1625 20.6673 10.8637C21.2389 10.6916 21.3782 10.4493 21.1903 9.89351C20.3979 7.55251 18.9466 5.82618 16.5547 4.99302C14.7819 4.37607 12.9662 4.3523 11.1448 4.66473C7.11365 5.3564 4.85527 8.05739 4.63 11.8632C4.47378 14.5121 4.48397 17.1848 4.63113 19.836C4.81339 23.1234 6.5533 25.6365 9.79313 26.679C11.7153 27.2983 13.6839 27.3752 15.6547 26.9371C19.0994 26.1719 21.4155 23.4607 21.5853 19.9436C21.6623 18.344 21.6159 16.7377 21.6216 15.1347C21.6238 14.451 21.5401 14.3593 20.8337 14.3571C18.5889 14.3503 16.3441 14.3514 14.0993 14.3571C13.4824 14.3582 13.3499 14.5031 13.3431 15.1381C13.3352 15.9498 13.3363 16.7603 13.3397 17.572C13.3431 18.3395 13.4507 18.4425 14.2306 18.4436C15.1883 18.4436 16.1449 18.4436 17.1456 18.4436L17.1467 18.4448Z" fill="white"/>
<g id="Group_2">
<path id="Vector_2" d="M53.2283 14.1907C55.2512 11.8893 57.7484 12.4836 58.5714 14.4465C58.7944 14.2009 58.9993 13.9609 59.2189 13.7368C60.1619 12.7734 61.2984 12.4248 62.5708 12.8821C63.833 13.3349 64.3119 14.4397 64.3515 15.6578C64.4285 18.0316 64.3821 20.4089 64.3934 22.7838C64.3945 23.1144 64.2745 23.2638 63.9258 23.2525C63.3417 23.2344 62.7553 23.2242 62.1724 23.2548C61.7082 23.2797 61.5407 23.1212 61.5464 22.6435C61.5679 20.796 61.5577 18.9474 61.5531 17.1C61.5531 16.8181 61.5622 16.5283 61.5022 16.2555C61.2849 15.2684 60.2977 14.9684 59.5597 15.6646C59.0887 16.1095 58.8386 16.6596 58.8408 17.323C58.8476 19.0957 58.8306 20.8685 58.8522 22.6401C58.8578 23.1008 58.7276 23.2876 58.2465 23.2559C57.6828 23.2197 57.1145 23.2219 56.5508 23.2548C56.1217 23.2785 55.9972 23.1166 56.0017 22.7035C56.0176 20.856 56.0085 19.0074 56.0085 17.16C56.0085 16.9709 56.0131 16.783 56.0006 16.5951C55.9667 16.037 55.8036 15.5446 55.215 15.3465C54.7101 15.1767 54.0626 15.4099 53.7626 15.9634C53.5294 16.3936 53.3313 16.9019 53.3166 17.3819C53.2645 19.1342 53.2838 20.8888 53.3053 22.6423C53.3109 23.0906 53.2125 23.2932 52.7166 23.2581C52.1167 23.2151 51.5099 23.2344 50.9077 23.2525C50.5613 23.2627 50.4447 23.1234 50.4458 22.7861C50.4526 19.6561 50.4526 16.526 50.4458 13.396C50.4458 13.0564 50.5692 12.9183 50.9088 12.9262C51.4929 12.9398 52.0793 12.9557 52.6623 12.9217C53.1264 12.8945 53.2702 13.0915 53.2317 13.5172C53.2136 13.713 53.2283 13.9122 53.2283 14.1907Z" fill="white"/>
<path id="Vector_3" d="M35.9391 18.0416C35.2588 18.0416 34.6781 18.0246 34.0996 18.0473C33.7215 18.062 33.5393 17.9567 33.5585 17.5435C33.5845 17.016 33.5766 16.4874 33.5619 15.9587C33.5529 15.6417 33.6796 15.5251 33.9943 15.5274C35.4094 15.5376 36.8244 15.524 38.2394 15.5455C38.39 15.5478 38.6684 15.7266 38.6684 15.824C38.6741 17.0862 38.7828 18.371 38.5847 19.6049C38.2235 21.852 36.4599 23.3123 34.129 23.456C32.3891 23.5636 30.7341 23.3145 29.4301 21.9912C28.4407 20.9871 28.1101 19.7193 28.1056 18.3722C28.0999 16.6775 28.0309 14.9625 28.2652 13.2939C28.5822 11.039 30.2349 9.61941 32.5182 9.46546C33.4963 9.3998 34.5253 9.45867 35.4716 9.69752C36.9885 10.0813 37.8919 11.2144 38.4126 12.66C38.5473 13.0336 38.4443 13.277 38.0458 13.3868C37.4662 13.5464 36.8855 13.7049 36.3138 13.8916C35.9901 13.9969 35.8452 13.9007 35.7161 13.5928C35.1784 12.3147 34.343 11.9095 32.8397 12.1597C31.7846 12.3351 31.1224 13.0664 31.076 14.3207C31.0217 15.8081 31.0319 17.3013 31.1043 18.7876C31.1586 19.9174 31.9454 20.626 33.0842 20.7483C34.4992 20.9011 35.4728 20.4403 35.7648 19.4204C35.8848 19.0004 35.8803 18.5442 35.9403 18.0382L35.9391 18.0416Z" fill="white"/>
<path id="Vector_4" d="M66.0181 16.0325C66.1449 14.9344 66.1607 13.8081 66.4233 12.7428C66.9022 10.7969 68.5243 9.53924 70.5201 9.44415C71.2276 9.41019 71.9555 9.41924 72.6494 9.54377C74.4923 9.87431 75.561 11.0618 76.0738 12.8187C76.1858 13.2036 76.0556 13.3915 75.7081 13.4922C75.167 13.6485 74.6214 13.79 74.0859 13.9632C73.675 14.0956 73.4554 13.9654 73.3309 13.5579C72.8566 12.007 71.4846 11.9493 70.4703 12.2221C69.5873 12.4598 69.1741 13.1583 69.1424 13.996C69.0824 15.5944 69.0768 17.1985 69.139 18.7969C69.1832 19.9255 69.9518 20.6658 70.9695 20.7541C72.2804 20.8685 73.0932 20.3738 73.4192 19.1851C73.5562 18.6825 73.795 18.6033 74.2342 18.7584C74.7301 18.9338 75.227 19.1093 75.7353 19.2417C76.1643 19.3538 76.2651 19.5802 76.1575 19.9889C75.6911 21.7469 74.6021 22.9049 72.8215 23.3012C71.1336 23.677 69.4786 23.583 68.0115 22.5257C66.8297 21.6733 66.2965 20.4439 66.1969 19.038C66.1267 18.0452 66.1833 17.0422 66.1833 16.0449C66.129 16.0415 66.0735 16.037 66.0192 16.0336L66.0181 16.0325Z" fill="white"/>
<path id="Vector_5" d="M97.6724 18.9474C97.592 20.1439 97.9022 20.8073 98.698 21.0326C99.5742 21.2805 100.833 21.2669 101.37 20.1835C101.552 19.8145 101.79 19.7511 102.144 19.947C102.572 20.1835 103.009 20.4043 103.449 20.616C103.756 20.7631 103.799 20.9556 103.656 21.2533C103.256 22.0933 102.619 22.6853 101.771 23.034C100.358 23.6147 98.9131 23.6543 97.4698 23.154C96.0378 22.657 95.1525 21.611 94.9986 20.1371C94.8582 18.7957 94.8412 17.4146 94.9941 16.0766C95.2159 14.1318 96.743 12.8492 98.7512 12.7394C99.384 12.7043 100.036 12.7292 100.66 12.8402C102.499 13.1696 103.732 14.665 103.766 16.5373C103.777 17.1407 103.746 17.7452 103.775 18.3463C103.799 18.833 103.58 18.9598 103.132 18.9553C101.511 18.9383 99.89 18.9485 98.269 18.9485H97.6735L97.6724 18.9474ZM97.686 17.0863H101.149C101.221 16.3347 101.101 15.6793 100.442 15.2774C99.761 14.8619 99.0229 14.8653 98.3516 15.2898C97.7098 15.6951 97.5536 16.3358 97.686 17.0863Z" fill="white"/>
<path id="Vector_6" d="M45.9402 22.039C44.875 23.3578 43.5981 23.7064 42.1185 23.3238C40.8258 22.9899 40.1013 21.9846 39.9847 20.4621C39.8839 19.1455 40.4737 18.0328 41.7314 17.6105C42.6958 17.2868 43.7452 17.203 44.7618 17.0445C45.1093 16.9902 45.4715 17.0355 45.8168 17.0355C46.1326 15.6136 45.51 14.8552 44.1856 14.9808C43.6535 15.0318 43.3128 15.3306 43.1328 15.797C43.0049 16.1276 42.809 16.1627 42.5159 16.0812C41.9906 15.9363 41.4676 15.7653 40.9322 15.6782C40.4046 15.5921 40.3888 15.3057 40.5292 14.9141C40.9174 13.8228 41.7416 13.2274 42.8192 12.9319C44.0282 12.6013 45.244 12.5889 46.4394 12.9636C47.7786 13.3836 48.6084 14.4658 48.6265 15.8695C48.657 18.1697 48.6299 20.47 48.6435 22.7702C48.6457 23.1506 48.4963 23.2661 48.1397 23.2514C47.6507 23.2321 47.1549 23.2072 46.6704 23.2559C46.0998 23.3136 45.9221 23.0668 45.9685 22.5484C45.9798 22.4205 45.9561 22.2903 45.9402 22.0356V22.039ZM45.8078 18.7414C45.0301 18.8444 44.2444 18.8988 43.4837 19.064C42.9041 19.1908 42.6189 19.6753 42.6675 20.1938C42.7174 20.7304 43.0683 21.0892 43.6637 21.182C45.0799 21.4016 46.2153 20.0376 45.8078 18.7414Z" fill="white"/>
<path id="Vector_7" d="M83.3739 22.0186C83.0841 22.2982 82.877 22.5043 82.6619 22.7035C81.2865 23.9827 78.007 23.8004 77.4512 21.1832C77.0177 19.141 77.7738 17.743 80.1058 17.2721C81.111 17.0695 82.1547 17.0547 83.1939 16.954C83.4883 15.6046 82.8724 14.8552 81.5469 14.982C81.0397 15.0307 80.7012 15.3001 80.5224 15.7507C80.3786 16.1129 80.1681 16.1752 79.8171 16.0676C79.3145 15.9137 78.8062 15.7642 78.2889 15.6805C77.7648 15.5956 77.7467 15.308 77.887 14.9152C78.2946 13.7798 79.1628 13.1799 80.2847 12.9002C81.4382 12.6127 82.5985 12.6025 83.7407 12.9501C85.1331 13.3746 85.973 14.467 85.9877 15.9239C86.0104 18.2049 85.9877 20.4859 86.0002 22.7658C86.0025 23.1405 85.861 23.2672 85.501 23.2537C84.9927 23.2344 84.481 23.2208 83.975 23.2571C83.5098 23.2899 83.306 23.1393 83.3694 22.6605C83.3932 22.4839 83.3728 22.3005 83.3728 22.0186H83.3739ZM83.1566 18.7392C82.3789 18.8479 81.5638 18.918 80.7692 19.0867C80.2496 19.1965 80.0062 19.6369 80.0345 20.1576C80.065 20.7066 80.3797 21.0519 80.9333 21.1674C82.3347 21.4594 83.6071 20.0919 83.1566 18.7392Z" fill="white"/>
<path id="Vector_8" d="M90.5226 14.4205C91.752 13.0111 92.4957 12.6772 93.9594 12.8821C93.9594 13.6281 93.9775 14.3911 93.9391 15.1507C93.9334 15.2582 93.6708 15.4076 93.5066 15.4427C93.0312 15.5446 92.5263 15.5367 92.069 15.685C91.1679 15.9782 90.6551 16.7649 90.6539 17.7124C90.6539 19.3527 90.6336 20.9941 90.6653 22.6344C90.6755 23.1472 90.5068 23.291 90.0178 23.257C89.4359 23.2174 88.8484 23.2355 88.2643 23.2536C87.9179 23.2638 87.8013 23.1234 87.8013 22.7861C87.8081 19.6561 87.8081 16.5249 87.8013 13.3949C87.8013 13.0542 87.9315 12.9183 88.2688 12.9262C88.8529 12.9387 89.4382 12.9466 90.0223 12.924C90.4309 12.9081 90.5566 13.0847 90.526 13.4651C90.5034 13.7424 90.5215 14.0243 90.5215 14.4216L90.5226 14.4205Z" fill="white"/>
</g>
</g>
</g>
</g>
<defs>
<clipPath id="clip0_5535_1268">
<rect width="102.938" height="30.3109" fill="white" transform="translate(0.838867 0.709473)"/>
</clipPath>
</defs>
</svg>
