<svg width="102" height="37" viewBox="0 0 102 37" fill="none" xmlns="http://www.w3.org/2000/svg">
<g id="Mediateur des jeux logo">
<path id="Vector" d="M7.54093 13.1637C8.70744 8.46041 9.69056 4.48937 9.72561 4.33933C9.78748 4.07429 9.83296 4.06641 11.3032 4.06641C12.1359 4.06641 12.8145 4.07999 12.8113 4.09673C12.808 4.11347 11.8071 8.13897 10.5869 13.0424L8.36842 21.9578L6.8932 21.9919C5.75688 22.0181 5.41822 21.9902 5.41895 21.8706C5.41943 21.7851 6.37441 17.867 7.54093 13.1637Z" fill="#D47C34" stroke="#D47C34" stroke-width="0.121297"/>
<g id="Vector_2">
<path d="M50.1184 20.5242C50.4932 18.7897 50.8274 17.275 50.8609 17.1582C50.9137 16.9746 51.0828 16.946 52.1139 16.946H53.3057L53.2058 17.4008L52.3605 21.252C51.3955 25.648 51.0997 26.2996 49.7735 26.9484C49.2121 27.2231 46.9641 27.5888 46.7984 27.4324C46.7742 27.4096 46.8208 26.924 46.9018 26.3533L47.0492 25.3155H47.647C49.1228 25.3155 49.0546 25.4477 50.1184 20.5242Z" fill="#D47C34"/>
<path d="M53.9381 22.0944C54.5385 19.3679 55.0297 17.0941 55.0297 17.0415C55.0297 16.989 56.5035 16.946 58.3048 16.946H61.5798L61.5791 17.2189C61.5787 17.369 61.5295 17.6828 61.4695 17.9163C61.4097 18.1498 61.3274 18.4897 61.2867 18.6717L61.2126 19.0024L59.0708 19.0356L56.9288 19.0687L56.7684 19.7965C56.6802 20.1967 56.5793 20.647 56.5444 20.7972L56.4807 21.0701H58.4844C59.5864 21.0701 60.4859 21.1111 60.4831 21.161C60.4804 21.211 60.383 21.6614 60.2665 22.1618L60.0548 23.0715L58.04 23.1047L56.0251 23.1378L55.8307 23.9989C55.5052 25.4403 55.3281 25.3155 57.6983 25.3155C59.9915 25.3155 59.8803 25.2671 59.6501 26.1646C59.5903 26.3981 59.5077 26.7393 59.4666 26.9227L59.3918 27.2562H56.1191C54.3191 27.2562 52.8464 27.2103 52.8464 27.154C52.8464 27.0977 53.3376 24.8208 53.9381 22.0944Z" fill="#D47C34"/>
<path d="M61.8224 26.0385C61.3047 25.1147 61.3874 23.9456 62.2405 20.13L62.9524 16.946H64.0856C64.931 16.946 65.2187 16.9857 65.2187 17.1027C65.2187 17.1889 64.9185 18.6218 64.5516 20.2867C63.851 23.4666 63.7673 24.2517 64.0671 24.8316C64.4441 25.5608 65.7231 25.6107 66.5021 24.9267C67.1715 24.339 67.3304 23.8912 68.0646 20.5229C68.4427 18.7891 68.7794 17.275 68.8129 17.1582C68.8786 16.9299 71.1623 16.8235 71.1623 17.0487C71.1623 17.5801 69.6236 23.9271 69.347 24.5375C68.5468 26.3021 67.0799 27.2775 65.107 27.3567C63.2956 27.4293 62.4005 27.0702 61.8224 26.0385Z" fill="#D47C34"/>
<path d="M73.1991 20.2866C72.817 19.4655 72.4361 18.6438 72.0566 17.8215L71.6502 16.9383L73.0532 16.9724L74.4564 17.0066L75.1031 18.5192C75.4589 19.3512 75.7957 20.0429 75.8518 20.0566C75.9077 20.0702 76.3529 19.6078 76.8408 19.0292C77.3289 18.4505 77.9324 17.7431 78.182 17.4572L78.6359 16.9376L79.9905 16.972L81.345 17.0066L79.1951 19.3832C78.0127 20.6903 76.9796 21.8391 76.8993 21.936C76.7812 22.0787 76.9797 22.5968 77.9407 24.6539L79.1278 27.1956L77.8517 27.2303C77.1499 27.2493 76.5154 27.2418 76.4419 27.2135C76.3683 27.1853 76.0189 26.4738 75.6656 25.6323C75.3123 24.791 74.9868 24.1049 74.9425 24.1079C74.8981 24.1109 74.2615 24.8173 73.5276 25.6778L72.1933 27.2422L70.8199 27.2492L69.4465 27.2562L69.6676 26.9765C69.7892 26.8226 70.8166 25.6694 71.9507 24.4139C73.0849 23.1583 73.9953 22.072 73.974 21.9998C73.9528 21.9275 73.604 21.1567 73.1991 20.2866Z" fill="#D47C34"/>
<path d="M50.1184 20.5242C50.4932 18.7897 50.8274 17.275 50.8609 17.1582C50.9137 16.9746 51.0828 16.946 52.1139 16.946H53.3057L53.2058 17.4008L52.3605 21.252C51.3955 25.648 51.0997 26.2996 49.7735 26.9484C49.2121 27.2231 46.9641 27.5888 46.7984 27.4324C46.7742 27.4096 46.8208 26.924 46.9018 26.3533L47.0492 25.3155H47.647C49.1228 25.3155 49.0546 25.4477 50.1184 20.5242Z" stroke="#D47C34" stroke-width="0.121297"/>
<path d="M53.9381 22.0944C54.5385 19.3679 55.0297 17.0941 55.0297 17.0415C55.0297 16.989 56.5035 16.946 58.3048 16.946H61.5798L61.5791 17.2189C61.5787 17.369 61.5295 17.6828 61.4695 17.9163C61.4097 18.1498 61.3274 18.4897 61.2867 18.6717L61.2126 19.0024L59.0708 19.0356L56.9288 19.0687L56.7684 19.7965C56.6802 20.1967 56.5793 20.647 56.5444 20.7972L56.4807 21.0701H58.4844C59.5864 21.0701 60.4859 21.1111 60.4831 21.161C60.4804 21.211 60.383 21.6614 60.2665 22.1618L60.0548 23.0715L58.04 23.1047L56.0251 23.1378L55.8307 23.9989C55.5052 25.4403 55.3281 25.3155 57.6983 25.3155C59.9915 25.3155 59.8803 25.2671 59.6501 26.1646C59.5903 26.3981 59.5077 26.7393 59.4666 26.9227L59.3918 27.2562H56.1191C54.3191 27.2562 52.8464 27.2103 52.8464 27.154C52.8464 27.0977 53.3376 24.8208 53.9381 22.0944Z" stroke="#D47C34" stroke-width="0.121297"/>
<path d="M61.8224 26.0385C61.3047 25.1147 61.3874 23.9456 62.2405 20.13L62.9524 16.946H64.0856C64.931 16.946 65.2187 16.9857 65.2187 17.1027C65.2187 17.1889 64.9185 18.6218 64.5516 20.2867C63.851 23.4666 63.7673 24.2517 64.0671 24.8316C64.4441 25.5608 65.7231 25.6107 66.5021 24.9267C67.1715 24.339 67.3304 23.8912 68.0646 20.5229C68.4427 18.7891 68.7794 17.275 68.8129 17.1582C68.8786 16.9299 71.1623 16.8235 71.1623 17.0487C71.1623 17.5801 69.6236 23.9271 69.347 24.5375C68.5468 26.3021 67.0799 27.2775 65.107 27.3567C63.2956 27.4293 62.4005 27.0702 61.8224 26.0385Z" stroke="#D47C34" stroke-width="0.121297"/>
<path d="M73.1991 20.2866C72.817 19.4655 72.4361 18.6438 72.0566 17.8215L71.6502 16.9383L73.0532 16.9724L74.4564 17.0066L75.1031 18.5192C75.4589 19.3512 75.7957 20.0429 75.8518 20.0566C75.9077 20.0702 76.3529 19.6078 76.8408 19.0292C77.3289 18.4505 77.9324 17.7431 78.182 17.4572L78.6359 16.9376L79.9905 16.972L81.345 17.0066L79.1951 19.3832C78.0127 20.6903 76.9796 21.8391 76.8993 21.936C76.7812 22.0787 76.9797 22.5968 77.9407 24.6539L79.1278 27.1956L77.8517 27.2303C77.1499 27.2493 76.5154 27.2418 76.4419 27.2135C76.3683 27.1853 76.0189 26.4738 75.6656 25.6323C75.3123 24.791 74.9868 24.1049 74.9425 24.1079C74.8981 24.1109 74.2615 24.8173 73.5276 25.6778L72.1933 27.2422L70.8199 27.2492L69.4465 27.2562L69.6676 26.9765C69.7892 26.8226 70.8166 25.6694 71.9507 24.4139C73.0849 23.1583 73.9953 22.072 73.974 21.9998C73.9528 21.9275 73.604 21.1567 73.1991 20.2866Z" stroke="#D47C34" stroke-width="0.121297"/>
</g>
<path id="Vector_3" fill-rule="evenodd" clip-rule="evenodd" d="M39.0371 2.11919C38.5599 2.71597 38.1694 3.23452 38.1694 3.27151C38.1694 3.30851 38.4422 3.33883 38.7755 3.33883C39.3697 3.33883 39.4062 3.31663 40.595 2.23551C41.2624 1.62878 41.8083 1.11023 41.8083 1.08318C41.8083 1.05626 41.38 1.03418 40.8565 1.03418H39.9047L39.0371 2.11919ZM4.45806 4.40018C4.3461 4.81987 1.15464 18.0178 0.512855 20.7147L0.231445 21.8973H3.18298L3.63445 20.0476C3.88274 19.0302 4.38297 16.9696 4.74614 15.4686C5.1093 13.9675 5.87323 10.8116 6.44382 8.4554C7.01428 6.09932 7.48115 4.12059 7.48115 4.05837C7.48115 3.99481 6.84665 3.94532 6.03031 3.94532H4.57935L4.45806 4.40018ZM15.1229 4.13891C15.1229 4.22079 7.98987 34.0938 7.89211 34.4213C7.8015 34.7248 8.0874 34.6884 8.56555 34.3357C10.3367 33.0289 12.6132 27.3743 14.5741 19.4107C14.9356 17.943 15.8655 13.9857 16.6404 10.6167C17.4155 7.24764 18.0771 4.39558 18.1107 4.27889C18.1665 4.08469 18.0414 4.06662 16.6472 4.06662C15.8088 4.06662 15.1229 4.09912 15.1229 4.13891ZM22.4747 9.19144C21.8896 11.8767 21.3843 14.1691 21.3518 14.2859C21.2989 14.4759 21.3996 14.4982 22.3117 14.4982H23.3307L23.7273 12.7091C23.9453 11.7251 24.2069 10.5474 24.3085 10.0921C24.41 9.63684 24.5353 9.30934 24.5868 9.36428C24.6634 9.44616 25.5545 12.5589 25.5545 12.7446C25.5545 12.775 25.9014 12.8 26.3254 12.8H27.0964L28.1032 11.3748C29.4463 9.47357 29.6965 9.13819 29.7388 9.18343C29.7583 9.20454 29.5171 10.3953 29.2029 11.8297L28.6313 14.4376L29.5945 14.473C30.1244 14.4925 30.5829 14.4834 30.6137 14.4527C30.6723 14.394 30.7691 13.9669 32.041 8.15107C32.4762 6.16118 32.8323 4.48267 32.8323 4.42117C32.8323 4.35955 32.4311 4.30921 31.9408 4.30921H31.0493L29.9091 5.94988C27.6742 9.16596 26.9791 10.141 26.9462 10.1061C26.9279 10.0867 26.6073 8.89729 26.234 7.46295C25.8605 6.0286 25.5212 4.73218 25.48 4.58213C25.4104 4.32923 25.3364 4.30921 24.4718 4.30921H23.5386L22.4747 9.19144ZM34.9544 4.46083C34.925 4.54429 34.4593 6.63206 33.9196 9.10046C33.38 11.5689 32.8929 13.7941 32.8372 14.0453L32.7359 14.5021L36.0285 14.4698L39.3211 14.4376L39.5193 13.4975L39.7177 12.5574H37.6093C36.0013 12.5574 35.5017 12.5214 35.5046 12.4058C35.5067 12.3225 35.6057 11.8175 35.7245 11.2838L35.9408 10.3134L37.9523 10.2802L39.9639 10.2471L40.1583 9.386C40.2653 8.91233 40.3528 8.47699 40.3528 8.41841C40.3528 8.35994 39.457 8.31203 38.3622 8.31203H36.3714L36.5427 7.55392C36.6369 7.13702 36.742 6.67427 36.7762 6.52568C36.8372 6.26052 36.8776 6.25495 38.9821 6.22244L41.1258 6.18932L41.3314 5.24927L41.537 4.30921H38.2725C35.7704 4.30921 34.9955 4.34463 34.9544 4.46083ZM42.5599 7.12938C41.4388 12.2036 40.9593 14.3955 40.9593 14.4473C40.9593 14.5984 45.6941 14.4839 46.3336 14.3172C49.1562 13.582 51.0305 10.834 50.8808 7.65035C50.8012 5.95595 50.2211 5.10031 48.7883 4.5643C48.1779 4.33578 47.8497 4.30921 45.6449 4.30921H43.1831L42.5599 7.12938ZM53.6955 4.37168C53.6955 4.40613 53.2042 6.67051 52.6038 9.40371C52.0034 12.1369 51.5121 14.4013 51.5121 14.4357C51.5121 14.4701 52.027 14.4982 52.6563 14.4982C53.6403 14.4982 53.8095 14.4685 53.8657 14.2859C53.9861 13.8935 56.0001 4.63101 56.0001 4.4692C56.0001 4.34803 55.7209 4.30921 54.8478 4.30921C54.214 4.30921 53.6955 4.33735 53.6955 4.37168ZM60.6525 5.37056C59.3744 7.34759 56.6925 11.5188 55.7392 13.0123L54.7908 14.4982H57.16L57.8063 13.4065L58.4525 12.3148H60.5053C62.0886 12.3148 62.5718 12.3512 62.619 12.4742C62.6526 12.5618 62.7479 13.0395 62.8309 13.5356L62.9817 14.4376L64.1643 14.4724C65.342 14.5069 65.3466 14.506 65.281 14.2298C65.1886 13.8408 63.278 4.42978 63.278 4.36343C63.278 4.33359 62.8417 4.30921 62.3083 4.30921H61.3387L60.6525 5.37056ZM66.3917 5.25206C66.2803 5.7706 66.1891 6.23287 66.1891 6.2792C66.1891 6.32566 66.8073 6.37891 67.5628 6.39771L68.9365 6.43192L68.1295 10.1315C67.6857 12.1663 67.2849 13.9812 67.2387 14.1646L67.1549 14.4982H69.5503L70.44 10.4347L71.3296 6.37127H74.1632L74.309 5.61316C74.3892 5.19626 74.4841 4.73218 74.5198 4.58213L74.585 4.30921H66.5944L66.3917 5.25206ZM74.8751 9.25208C74.282 11.9707 73.771 14.2641 73.7394 14.3485C73.6939 14.4707 74.3618 14.4955 76.9935 14.4698L80.3048 14.4376L80.5105 13.4975L80.7161 12.5574H78.6077C76.1876 12.5574 76.3791 12.6929 76.721 11.2232L76.9327 10.3134L78.9476 10.2802L80.9624 10.2471L81.1569 9.386C81.2639 8.91233 81.3513 8.47699 81.3513 8.41841C81.3513 8.35994 80.4574 8.31203 79.3647 8.31203H77.3781L77.5483 7.49327C77.6418 7.04289 77.7481 6.57905 77.7842 6.46224C77.8436 6.27071 78.0564 6.24997 79.9599 6.24997H82.0698L82.1827 5.79511C82.2625 5.47204 82.3406 5.14858 82.417 4.82473L82.5385 4.30921H79.2461L75.9536 4.30933L74.8751 9.25208ZM84.0816 4.46083C83.7862 5.32338 82.6595 11.0751 82.6607 11.7144C82.6644 13.7311 83.6247 14.5588 85.9606 14.5588C88.1699 14.5588 89.5751 13.7208 90.4542 11.8787C90.7706 11.2158 92.2622 5.11232 92.267 4.46083C92.2677 4.35033 91.9618 4.30921 91.138 4.30921H90.0077L89.3605 7.31132C88.4691 11.4457 88.2672 11.94 87.262 12.4529C86.6107 12.7852 85.8169 12.7115 85.3837 12.2783C84.8567 11.7512 84.8943 11.1706 85.69 7.55392L86.404 4.30921H85.2688C84.4692 4.30921 84.1182 4.35409 84.0816 4.46083ZM94.2717 4.58213C93.9482 5.98287 92.1468 14.2886 92.1468 14.3796C92.1468 14.4485 92.6231 14.4982 93.2821 14.4982H94.4174L94.8309 12.5878L95.2444 10.6773L95.7977 10.6412C96.6627 10.5848 96.8018 10.7747 97.3355 12.7394L97.7968 14.4376L99.1055 14.4721C100.329 14.5044 100.409 14.4921 100.343 14.2833C100.304 14.1604 100.085 13.408 99.8563 12.6112C99.4937 11.348 99.3852 11.1145 99.0095 10.7871L98.5786 10.4116L99.0507 10.2701C101.085 9.66061 102.318 6.22304 100.96 4.94493C100.347 4.36731 99.9883 4.30921 97.0436 4.30921H94.3348L94.2717 4.58213ZM95.9759 7.25068C95.8612 7.801 95.7404 8.34684 95.7076 8.46365C95.6536 8.65603 95.7653 8.6758 96.8996 8.6741C98.5879 8.67168 99.118 8.35473 99.265 7.25953C99.372 6.46103 98.9871 6.24997 97.4245 6.24997H96.1847L95.9759 7.25068ZM44.9751 6.82613C44.9103 7.07637 44.6319 8.34539 44.3566 9.6463C44.0811 10.9472 43.8256 12.1147 43.7889 12.2407C43.7258 12.4571 43.7888 12.4666 44.9182 12.4114C46.772 12.3208 47.7104 11.6614 48.2303 10.0843C49.0703 7.53645 48.4028 6.38012 46.0888 6.37394L45.0927 6.37127L44.9751 6.82613ZM60.6456 8.7282C60.1012 9.62034 59.6883 10.3829 59.7282 10.4228C59.8232 10.5178 62.3076 10.5175 62.3076 10.4226C62.3076 10.1422 61.7801 7.26329 61.7159 7.19354C61.6717 7.14551 61.19 7.83606 60.6456 8.7282ZM40.8727 17.3363C39.1548 17.8948 37.9877 19.2736 37.8384 20.9209C37.7097 22.3401 38.2547 22.8002 41.0806 23.6576C42.2295 24.0062 42.4819 24.5175 41.8281 25.1713C41.1716 25.8277 39.6312 25.8155 38.2729 25.1431L37.4667 24.744L36.9205 25.6527L36.3743 26.5615L36.7672 26.8285C37.9074 27.6032 40.6415 27.8151 42.1001 27.2418C43.634 26.639 44.6784 25.085 44.5713 23.5651C44.4921 22.4423 43.8664 21.9309 41.8911 21.3747C40.5756 21.0041 40.2315 20.7887 40.2315 20.3354C40.2315 19.1452 42.1175 18.7088 43.6989 19.533C44.1479 19.7671 44.5275 19.9446 44.5424 19.9272C44.5573 19.91 44.7974 19.5215 45.0759 19.064C45.6678 18.0912 45.6352 17.9933 44.5592 17.5184C43.7759 17.1726 41.6926 17.0697 40.8727 17.3363ZM20.6421 17.4397C20.6129 17.5231 20.1056 19.8019 19.5146 22.5038L18.44 27.4164L20.6327 27.453C23.9731 27.5087 25.1193 27.1725 26.5039 25.7306C28.1421 24.0245 28.8921 21.0878 28.158 19.2533C27.8785 18.5548 26.9079 17.703 26.1271 17.4712C25.3121 17.2292 20.7248 17.2028 20.6421 17.4397ZM29.8767 22.1703C29.292 24.8554 28.7863 27.148 28.7529 27.2648C28.6958 27.4632 28.9057 27.477 31.9704 27.477H35.2489L35.37 27.0222C35.4366 26.7721 35.5276 26.3354 35.5721 26.0518L35.6532 25.5363H31.4705L31.5492 25.0111C31.5925 24.7222 31.6943 24.2174 31.7753 23.8891L31.9226 23.2923L33.9356 23.2592L35.9487 23.2259L36.0991 22.5314C36.1818 22.1493 36.278 21.7139 36.3128 21.5638L36.3763 21.2909H32.3425L32.4062 21.0179C32.4411 20.8678 32.5421 20.4175 32.6302 20.0172L32.7906 19.2895L34.9326 19.2563L37.0745 19.2232L37.1486 18.8924C37.1892 18.7105 37.2716 18.3706 37.3314 18.1371C37.5663 17.2211 37.814 17.288 34.1906 17.288H30.9396L29.8767 22.1703ZM21.9341 22.2309C21.5884 23.8154 21.3064 25.1865 21.3074 25.2778C21.31 25.5332 23.4113 25.4087 24.0164 25.1172C25.2189 24.5381 26.0346 22.9891 26.0382 21.2785C26.0411 19.9312 25.3079 19.3506 23.6037 19.3503L22.5626 19.3501L21.9341 22.2309ZM36.5926 31.116C36.5211 31.2494 36.5108 31.3586 36.5695 31.3586C36.6282 31.3586 36.7751 31.2494 36.8958 31.116C37.0896 30.9019 37.0923 30.8734 36.9188 30.8734C36.8108 30.8734 36.664 30.9825 36.5926 31.116ZM18.5192 32.96C18.219 33.6376 17.9552 34.2368 17.933 34.2915C17.8277 34.5503 18.2991 34.353 18.42 34.0877C18.5445 33.8145 18.6285 33.7845 19.2691 33.7845C19.9097 33.7845 19.9937 33.8145 20.1182 34.0877C20.2385 34.3519 20.5813 34.5219 20.5813 34.3172C20.5813 34.0021 19.4172 31.7229 19.2573 31.7252C19.1313 31.7269 18.8771 32.1523 18.5192 32.96ZM21.0665 32.7615C21.0665 34.0002 21.1641 34.2213 21.7846 34.3883C22.3139 34.531 22.8206 34.4001 23.0845 34.0527C23.3247 33.7365 23.3104 31.7224 23.0679 31.7224C22.9214 31.7224 22.8859 31.9112 22.8859 32.6928C22.8859 33.768 22.6817 34.1484 22.1044 34.1484C21.6195 34.1484 21.4304 33.7323 21.4304 32.6658C21.4304 31.9082 21.3946 31.7224 21.2484 31.7224C21.1008 31.7224 21.0665 31.9187 21.0665 32.7615ZM23.735 31.9044C23.735 32.0315 23.8631 32.0863 24.1596 32.0863H24.5841V33.2387C24.5841 34.3101 24.6011 34.391 24.8267 34.391C25.0523 34.391 25.0693 34.3101 25.0693 33.2387V32.0863H25.4938C25.7903 32.0863 25.9184 32.0315 25.9184 31.9044C25.9184 31.7562 25.7162 31.7224 24.8267 31.7224C23.9372 31.7224 23.735 31.7562 23.735 31.9044ZM26.5155 32.077C25.7118 32.8807 26.2381 34.4051 27.3292 34.4337C28.3172 34.4595 28.908 33.5952 28.6015 32.5723C28.3364 31.6878 27.1795 31.413 26.5155 32.077ZM29.3147 33.0567C29.3147 34.1619 29.346 34.391 29.4966 34.391C29.6318 34.391 29.6786 34.2486 29.6786 33.8375C29.6786 33.2865 29.6804 33.2841 30.0712 33.322C30.3911 33.3529 30.5166 33.4555 30.7475 33.8755C30.9261 34.2003 31.1158 34.391 31.2604 34.391C31.4791 34.391 31.4776 34.3698 31.225 33.9361C31.0793 33.686 30.9175 33.4631 30.8652 33.4409C30.7013 33.371 30.762 33.178 30.948 33.178C31.1582 33.178 31.3768 32.8111 31.3768 32.4582C31.3768 31.9621 30.9619 31.7224 30.1031 31.7224H29.3147V33.0567ZM31.9832 33.0567C31.9832 34.3101 31.9979 34.391 32.2258 34.391C32.4538 34.391 32.4684 34.3101 32.4684 33.0567C32.4684 31.8033 32.4538 31.7224 32.2258 31.7224C31.9979 31.7224 31.9832 31.8033 31.9832 33.0567ZM32.8323 31.9044C32.8323 32.0358 32.9671 32.0863 33.3175 32.0863H33.8027V33.2387C33.8027 34.1821 33.8357 34.391 33.9847 34.391C34.1336 34.391 34.1666 34.1821 34.1666 33.2387V32.0863H34.6518C35.0022 32.0863 35.137 32.0358 35.137 31.9044C35.137 31.7554 34.9281 31.7224 33.9847 31.7224C33.0412 31.7224 32.8323 31.7554 32.8323 31.9044ZM35.5009 33.0567V34.391H36.4106C36.9362 34.391 37.3203 34.3398 37.3203 34.2697C37.3203 34.203 37.0201 34.1484 36.6532 34.1484H35.9861V33.178H36.5926C36.9261 33.178 37.199 33.1234 37.199 33.0567C37.199 32.99 36.9261 32.9354 36.5926 32.9354H35.9861V32.0863H36.6532C37.1653 32.0863 37.3203 32.0441 37.3203 31.9044C37.3203 31.7588 37.1384 31.7224 36.4106 31.7224H35.5009V33.0567ZM38.8972 33.0567C38.8972 34.3006 38.9133 34.391 39.1347 34.391C39.3467 34.391 39.376 34.2914 39.4076 33.4627L39.443 32.5344L40.1534 33.4627C41.1257 34.7334 41.2019 34.7039 41.2019 33.0567C41.2019 31.9679 41.1692 31.7224 41.0248 31.7224C40.887 31.7224 40.84 31.9417 40.8125 32.7132L40.7773 33.7041L40.0114 32.7132C38.974 31.3709 38.8972 31.3946 38.8972 33.0567ZM42.302 32.9051C42.0169 33.5556 41.7559 34.156 41.7223 34.2394C41.6883 34.3238 41.7489 34.391 41.859 34.391C41.9678 34.391 42.1088 34.2545 42.1722 34.0877C42.2776 33.8105 42.3502 33.7845 43.0213 33.7845C43.6925 33.7845 43.765 33.8105 43.8704 34.0877C43.9338 34.2545 44.0735 34.391 44.1808 34.391C44.288 34.391 44.3577 34.3421 44.3353 34.2823C43.9263 33.1832 43.1728 31.7224 43.0149 31.7224C42.8853 31.7224 42.6476 32.1169 42.302 32.9051ZM44.2343 31.8971C44.2343 32.0113 44.3916 32.0848 44.6892 32.1094L45.144 32.147L45.179 33.269C45.2065 34.1568 45.2508 34.391 45.3912 34.391C45.5344 34.391 45.5686 34.1689 45.5686 33.2387V32.0863H45.9931C46.2896 32.0863 46.4176 32.0315 46.4176 31.9044C46.4176 31.7562 46.2154 31.7224 45.326 31.7224C44.4568 31.7224 44.2343 31.758 44.2343 31.8971ZM46.9028 33.0567C46.9028 34.1619 46.9341 34.391 47.0848 34.391C47.2354 34.391 47.2667 34.1619 47.2667 33.0567C47.2667 31.9516 47.2354 31.7224 47.0848 31.7224C46.9341 31.7224 46.9028 31.9516 46.9028 33.0567ZM48.3533 32.056C47.6293 32.704 47.8926 34.1297 48.7819 34.3752C49.8758 34.6772 50.7207 33.7754 50.4071 32.6401C50.1543 31.7244 49.069 31.4157 48.3533 32.056ZM51.027 33.0479C51.027 34.3005 51.043 34.391 51.2645 34.391C51.4766 34.391 51.5057 34.2914 51.5374 33.4575L51.5728 32.5241L52.2871 33.4575C53.2602 34.7292 53.3316 34.7018 53.3316 33.0567C53.3316 31.9679 53.299 31.7224 53.1545 31.7224C53.0167 31.7224 52.9697 31.9411 52.9422 32.7091L52.9071 33.6958L52.177 32.7406C51.1225 31.3611 51.027 31.3866 51.027 33.0479ZM54.4124 32.9594C54.2197 33.4038 54.028 33.8486 53.8371 34.2937C53.7297 34.5518 54.204 34.3512 54.3241 34.0877C54.4485 33.8145 54.5326 33.7845 55.1735 33.7845C55.8206 33.7845 55.8952 33.8119 56.0001 34.0877C56.0636 34.2545 56.2045 34.391 56.3133 34.391C56.5417 34.391 56.555 34.435 55.8541 32.8613C55.1911 31.3727 55.0956 31.3792 54.4124 32.9594ZM56.9705 33.0567V34.391H57.8196C58.4935 34.391 58.6687 34.3534 58.6687 34.209C58.6687 34.0693 58.5137 34.0271 58.0016 34.0271H57.3344V32.8748C57.3344 31.9313 57.3014 31.7224 57.1525 31.7224C57.0018 31.7224 56.9705 31.9516 56.9705 33.0567ZM59.1539 33.0567V34.391H60.0636C61.1276 34.391 61.2976 34.1774 60.2759 34.1241L59.5784 34.0877V33.2387L60.2152 33.202C60.5655 33.1818 60.852 33.1165 60.852 33.0567C60.852 32.9969 60.5655 32.9317 60.2152 32.9114C59.5942 32.8757 59.5775 32.8649 59.5405 32.4806L59.5024 32.0863H60.2379C60.8108 32.0863 60.9733 32.0461 60.9733 31.9044C60.9733 31.7588 60.7914 31.7224 60.0636 31.7224H59.1539V33.0567ZM62.5502 33.0567V34.391H63.3367C64.4002 34.391 64.8953 33.9954 64.8953 33.1459C64.8953 32.1301 64.4125 31.7224 63.2095 31.7224H62.5502V33.0567ZM65.4613 33.0567V34.391H66.3711C66.8967 34.391 67.2808 34.3398 67.2808 34.2697C67.2808 34.203 66.9806 34.1484 66.6137 34.1484H65.9465V33.178H66.6137C66.9806 33.178 67.2808 33.1234 67.2808 33.0567C67.2808 32.99 66.9806 32.9354 66.6137 32.9354H65.9465V32.0863H66.6137C67.1258 32.0863 67.2808 32.0441 67.2808 31.9044C67.2808 31.7588 67.0989 31.7224 66.3711 31.7224H65.4613V33.0567ZM68.0357 31.9113C67.4309 32.3349 67.7659 33.0149 68.7125 33.2851C69.2856 33.4489 69.4554 33.6847 69.2116 33.9785C69.0502 34.173 68.4271 34.1702 67.9783 33.9731C67.8267 33.9065 67.766 33.9342 67.766 34.07C67.766 34.3473 68.5735 34.5378 69.1151 34.3882C70.1151 34.1121 69.9549 33.2526 68.844 32.9319C68.3348 32.785 68.1821 32.6843 68.1519 32.4757C68.0996 32.1148 68.6261 31.9029 69.1346 32.0802C69.5809 32.2357 69.8281 32.1111 69.52 31.8858C69.2175 31.6646 68.3669 31.6791 68.0357 31.9113ZM71.6475 32.8725C71.6475 33.9896 71.639 34.0245 71.3524 34.0966C71.1747 34.1411 71.0816 34.2343 71.1185 34.3305C71.1923 34.5227 71.8758 34.3653 72.0313 34.1203C72.085 34.0357 72.1298 33.4615 72.1309 32.8444C72.1326 31.8027 72.1154 31.7224 71.8901 31.7224C71.6646 31.7224 71.6475 31.8033 71.6475 32.8725ZM72.8605 33.0567V34.391H73.7096C74.1948 34.391 74.5587 34.339 74.5587 34.2697C74.5587 34.203 74.2585 34.1484 73.8915 34.1484H73.2244V33.178H73.8309C74.1644 33.178 74.4374 33.1234 74.4374 33.0567C74.4374 32.99 74.1644 32.9354 73.8309 32.9354H73.2244V32.0863H73.8915C74.4036 32.0863 74.5587 32.0441 74.5587 31.9044C74.5587 31.76 74.3835 31.7224 73.7096 31.7224H72.8605V33.0567ZM75.1652 32.7615C75.1652 33.9519 75.2565 34.1933 75.775 34.374C76.2813 34.5505 76.8217 34.4216 77.1097 34.0555C77.423 33.6571 77.4702 31.7224 77.1666 31.7224C77.02 31.7224 76.9846 31.9112 76.9846 32.6928C76.9846 33.7619 76.7802 34.1484 76.215 34.1484C75.694 34.1484 75.529 33.8034 75.529 32.7136C75.529 31.9135 75.494 31.7224 75.3471 31.7224C75.1995 31.7224 75.1652 31.9187 75.1652 32.7615ZM77.8337 31.8366C77.8337 31.8994 77.8792 31.9789 77.9349 32.0132C77.9904 32.0476 78.1875 32.2945 78.3729 32.5619L78.7098 33.0481L78.2717 33.6448C77.7817 34.3124 77.7549 34.391 78.0169 34.391C78.1175 34.391 78.3495 34.1747 78.5324 33.9104C78.9449 33.3139 78.9553 33.3137 79.3724 33.9033C79.5601 34.1687 79.8125 34.387 79.9332 34.3884C80.1814 34.3914 80.1479 34.3085 79.6328 33.6457C79.197 33.085 79.2004 33.0372 79.7242 32.352C80.1013 31.8589 80.1301 31.7771 79.9405 31.7388C79.8117 31.7127 79.6451 31.8098 79.5357 31.9749C78.9954 32.7899 78.9918 32.7908 78.6077 32.2361C78.2932 31.782 77.8337 31.5449 77.8337 31.8366ZM27.0483 32.0872C26.1753 32.4389 26.4736 34.1484 27.4079 34.1484C28.1935 34.1484 28.5572 32.7307 27.9034 32.2165C27.5553 31.9426 27.4477 31.9262 27.0483 32.0872ZM48.6677 32.2512C48.0506 32.8683 48.4147 34.1484 49.2075 34.1484C49.6725 34.1484 50.0566 33.6533 50.0566 33.0538C50.0566 32.1642 49.2315 31.6874 48.6677 32.2512ZM29.6786 32.5109V32.9354H30.2721C30.9029 32.9354 31.0899 32.7626 30.9468 32.3118C30.8897 32.1322 30.7535 32.0863 30.277 32.0863H29.6786V32.5109ZM62.9396 33.087L62.9748 34.0877L63.5206 34.0551C64.9183 33.9718 64.851 32.0863 63.4504 32.0863H62.9043L62.9396 33.087ZM19.0996 32.5109C18.6806 33.3317 18.6943 33.4206 19.2389 33.4206C19.7966 33.4206 19.8187 33.3538 19.4998 32.6322L19.2855 32.147L19.0996 32.5109ZM42.7484 32.7248C42.464 33.4167 42.4654 33.4206 43.0213 33.4206C43.2882 33.4206 43.5065 33.3802 43.5065 33.331C43.5065 33.1808 43.0862 32.2085 43.0213 32.2085C42.988 32.2085 42.8651 32.4409 42.7484 32.7248ZM54.9963 32.5243C54.5855 33.3315 54.6 33.4206 55.1429 33.4206C55.7075 33.4206 55.7189 33.389 55.4056 32.6892L55.1748 32.1738L54.9963 32.5243ZM17.6701 36.5743C17.6701 36.6549 28.1826 36.6956 48.9649 36.6956C69.7472 36.6956 80.2596 36.6549 80.2596 36.5743C80.2596 36.4938 69.7472 36.453 48.9649 36.453C28.1826 36.453 17.6701 36.4938 17.6701 36.5743Z" fill="white" stroke="white" stroke-width="0.121297"/>
</g>
</svg>
