<svg width="24" height="24" viewBox="0 0 24 24" fill="none" xmlns="http://www.w3.org/2000/svg">
<g id="news_24dp_E8EAED_FILL0_wght400_GRAD0_opsz24 1">
<path id="Vector" d="M5 21.4727C4.45 21.4727 3.97917 21.2768 3.5875 20.8852C3.19583 20.4935 3 20.0227 3 19.4727V5.47266C3 4.92266 3.19583 4.45182 3.5875 4.06016C3.97917 3.66849 4.45 3.47266 5 3.47266H16L21 8.47266V19.4727C21 20.0227 20.8042 20.4935 20.4125 20.8852C20.0208 21.2768 19.55 21.4727 19 21.4727H5ZM5 19.4727H19V9.47266H15V5.47266H5V19.4727ZM7 17.4727H17V15.4727H7V17.4727ZM7 9.47266H12V7.47266H7V9.47266ZM7 13.4727H17V11.4727H7V13.4727Z" fill="#FE910A"/>
</g>
</svg>
