<svg width="24" height="24" viewBox="0 0 24 24" fill="none" xmlns="http://www.w3.org/2000/svg">
<g id="ri:chat-ai-line">
<path id="Vector" d="M20.713 8.12908L20.467 8.69508C20.4286 8.78725 20.3637 8.86598 20.2806 8.92135C20.1975 8.97673 20.0999 9.00628 20 9.00628C19.9001 9.00628 19.8025 8.97673 19.7194 8.92135C19.6363 8.86598 19.5714 8.78725 19.533 8.69508L19.287 8.12908C18.8545 7.1278 18.0624 6.325 17.067 5.87908L16.308 5.54008C16.2159 5.49772 16.1379 5.42985 16.0832 5.34451C16.0286 5.25917 15.9995 5.15994 15.9995 5.05858C15.9995 4.95722 16.0286 4.85799 16.0832 4.77265C16.1379 4.68731 16.2159 4.61944 16.308 4.57708L17.025 4.25808C18.0454 3.79946 18.8511 2.96696 19.276 1.93208L19.529 1.32108C19.5662 1.22644 19.631 1.14518 19.715 1.08791C19.799 1.03063 19.8983 1 20 1C20.1017 1 20.201 1.03063 20.285 1.08791C20.369 1.14518 20.4338 1.22644 20.471 1.32108L20.724 1.93108C21.1485 2.96616 21.9538 3.79901 22.974 4.25808L23.692 4.57808C23.7838 4.62056 23.8615 4.68842 23.916 4.77365C23.9705 4.85889 23.9994 4.95793 23.9994 5.05908C23.9994 5.16023 23.9705 5.25928 23.916 5.34451C23.8615 5.42974 23.7838 5.4976 23.692 5.54008L22.932 5.87808C21.9368 6.32445 21.1451 7.12761 20.713 8.12908ZM10 3.00108H14V5.00108H10C8.4087 5.00108 6.88258 5.63322 5.75736 6.75844C4.63214 7.88366 4 9.40978 4 11.0011C4 14.6111 6.462 16.9671 12 19.4811V17.0011H14C15.5913 17.0011 17.1174 16.3689 18.2426 15.2437C19.3679 14.1185 20 12.5924 20 11.0011H22C22 13.1228 21.1571 15.1576 19.6569 16.6579C18.1566 18.1582 16.1217 19.0011 14 19.0011V22.5011C9 20.5011 2 17.5011 2 11.0011C2 8.87935 2.84285 6.84452 4.34315 5.34423C5.84344 3.84394 7.87827 3.00108 10 3.00108Z" fill="#FE910A"/>
</g>
</svg>
