<svg width="53" height="48" viewBox="0 0 53 48" fill="none" xmlns="http://www.w3.org/2000/svg">
<path d="M15.7109 13.927C16.2687 13.927 16.8367 13.9574 17.4149 14.0183V14.0487L17.4453 14.0183V31.8952C18.2567 32.2197 18.8298 32.5646 19.1645 32.9297L18.845 35.5162H10.751L10.4315 32.9297C10.8169 32.4733 11.6588 32.0777 12.9571 31.743V18.0957C11.7906 17.974 10.8575 17.7559 10.1576 17.4415V15.0833C11.8921 14.3124 13.7431 13.927 15.7109 13.927ZM21.8654 19.4346C21.8654 17.6089 22.4486 16.2091 23.615 15.2354C24.7916 14.2516 26.4551 13.7596 28.6054 13.7596C30.7557 13.7596 32.3582 14.1907 33.4131 15.0528C34.4781 15.915 35.0106 17.264 35.0106 19.0999C35.0106 19.9113 34.7824 20.7481 34.326 21.6102C33.8695 22.4724 33.3168 23.1925 32.6676 23.7707C33.7935 24.5213 34.6353 25.2769 35.1932 26.0376C35.7511 26.7882 36.03 27.7974 36.03 29.0653C36.03 31.1446 35.3403 32.7827 33.9608 33.9795C32.5814 35.1663 30.6644 35.7596 28.2098 35.7596C25.7451 35.7596 23.8991 35.2525 22.6718 34.2382C21.4445 33.2239 20.8308 31.6568 20.8308 29.5369C20.8308 28.4111 21.1199 27.3765 21.698 26.4332C22.2863 25.4899 23.0775 24.714 24.0715 24.1054C23.3209 23.4461 22.763 22.7767 22.3979 22.0971C22.0429 21.4074 21.8654 20.5199 21.8654 19.4346ZM29.6552 22.4318C30.6187 19.3585 30.8672 18.1414 30.4007 18.7804C29.9442 17.3096 29.2849 16.5743 28.4228 16.5743C27.5606 16.5743 26.9064 16.7822 26.4601 17.1981C26.0544 17.5734 25.8363 18.0602 25.8059 18.6587C25.7755 19.2469 25.8465 19.7389 26.0189 20.1345C26.1711 20.4793 26.4145 20.7684 26.7492 21.0017C27.0839 21.235 27.3781 21.4226 27.6316 21.5646C27.9359 21.737 28.2808 21.8942 28.6662 22.0362C29.0618 22.1681 29.3914 22.3 29.6552 22.4318ZM25.3799 29.1566C25.3799 31.4692 26.3993 32.6255 28.438 32.6255C30.4666 32.6255 31.4809 31.6467 31.4809 29.6891C31.4809 28.6139 31.0904 27.7721 30.3094 27.1635C29.6907 26.7071 29.0364 26.3419 28.3467 26.0681C28.0019 25.9362 27.7229 25.8297 27.5099 25.7486C27.2969 25.6573 27.1499 25.5913 27.0687 25.5508C25.9429 26.5042 25.3799 27.7061 25.3799 29.1566Z" fill="white"/>
<path fill-rule="evenodd" clip-rule="evenodd" d="M41.658 34.4516C38.084 40.477 31.5137 44.5161 24 44.5161C12.6693 44.5161 3.48387 35.3307 3.48387 24C3.48387 12.6693 12.6693 3.48387 24 3.48387C31.9868 3.48387 38.9077 8.04768 42.2971 14.7097H46.1357C42.5046 6.0683 33.961 0 24 0C10.7452 0 0 10.7452 0 24C0 37.2548 10.7452 48 24 48C33.5085 48 41.7255 42.4705 45.6108 34.4516H41.658Z" fill="white"/>
<path d="M46.2681 20.5808V23.289H51.517L51.8213 25.2212C51.1925 25.9413 50.2593 26.3014 49.0219 26.3014H46.2681V31.5047L44.0924 31.8242C43.3621 31.1649 42.997 30.2318 42.997 29.0248V26.3014H37.8241L37.5198 24.3692C38.1588 23.649 39.0919 23.289 40.3192 23.289H42.997V18.0856L45.1878 17.7661C45.908 18.395 46.2681 19.3332 46.2681 20.5808Z" fill="white"/>
</svg>
