<svg width="51" height="51" viewBox="0 0 51 51" fill="none" xmlns="http://www.w3.org/2000/svg">
<rect x="1.12963" y="1.12963" width="48.7407" height="48.7407" rx="24.3704" fill="white"/>
<rect x="1.12963" y="1.12963" width="48.7407" height="48.7407" rx="24.3704" stroke="#FF0000" stroke-width="1.74074"/>
<rect x="4.32098" y="4.3208" width="42.358" height="42.358" rx="21.179" fill="#FF0000"/>
<g filter="url(#filter0_d_470_13005)">
<path d="M13.2633 16.4999C13.3838 16.4482 13.5129 16.4224 13.6507 16.4224H16.1299C16.216 16.4224 16.2848 16.4568 16.3365 16.5257C16.4053 16.5774 16.4398 16.6462 16.4398 16.7323V34.1901C16.4398 34.2762 16.4053 34.3537 16.3365 34.4225C16.2848 34.4742 16.216 34.5 16.1299 34.5H13.754C13.6679 34.5 13.5904 34.4742 13.5215 34.4225C13.4699 34.3537 13.4441 34.2762 13.4441 34.1901V19.6247C13.4441 19.5903 13.4268 19.5559 13.3924 19.5214C13.3752 19.487 13.3494 19.4784 13.3149 19.4956L11.1973 19.9088H11.1198C10.9304 19.9088 10.8357 19.8141 10.8357 19.6247L10.7583 17.8944C10.7583 17.7223 10.8271 17.6018 10.9649 17.5329L13.2633 16.4999ZM25.9799 24.9189C25.8766 24.9877 25.8766 25.048 25.9799 25.0997C26.5481 25.4268 26.9785 25.9261 27.2712 26.5975C27.6328 27.4067 27.8135 28.3192 27.8135 29.335C27.8135 30.2475 27.6758 31.048 27.4003 31.7367C27.056 32.6664 26.5137 33.3981 25.7733 33.9318C25.0502 34.4483 24.1808 34.7066 23.165 34.7066C22.1664 34.7066 21.297 34.4483 20.5567 33.9318C19.8336 33.4153 19.2998 32.6922 18.9555 31.7625C18.6973 31.0394 18.5681 30.2302 18.5681 29.335C18.5681 28.3192 18.7231 27.4497 19.033 26.7266C19.2912 26.038 19.7475 25.5042 20.4017 25.1255C20.4706 25.0738 20.4706 25.0222 20.4017 24.9705C19.8336 24.609 19.3945 24.1097 19.0846 23.4727C18.7403 22.7323 18.5681 21.9059 18.5681 20.9935C18.5681 19.9949 18.7403 19.1599 19.0846 18.4884C19.429 17.7309 19.9541 17.1455 20.66 16.7323C21.3831 16.3191 22.2181 16.1125 23.165 16.1125C24.0947 16.1125 24.9125 16.3191 25.6184 16.7323C26.3415 17.1283 26.8838 17.7051 27.2454 18.4626C27.6241 19.1857 27.8135 20.0293 27.8135 20.9935C27.8135 21.8887 27.6414 22.6979 27.297 23.421C26.9871 24.058 26.5481 24.5573 25.9799 24.9189ZM21.693 20.0637C21.5725 20.3737 21.5122 20.7696 21.5122 21.2517C21.5122 21.7682 21.5983 22.2589 21.7705 22.7237C21.891 23.0853 22.0717 23.3694 22.3128 23.576C22.5538 23.7826 22.8379 23.8859 23.165 23.8859C23.5266 23.8859 23.8279 23.7826 24.0689 23.576C24.3271 23.3521 24.5165 23.0422 24.637 22.6463C24.7748 22.2331 24.8436 21.7682 24.8436 21.2517C24.8436 20.6663 24.7576 20.1929 24.5854 19.8313C24.4649 19.4698 24.2841 19.1943 24.0431 19.0049C23.802 18.7983 23.5093 18.695 23.165 18.695C22.8551 18.695 22.5796 18.7897 22.3386 18.9791C22.1148 19.1513 21.9426 19.3923 21.8221 19.7022L21.693 20.0637ZM24.7145 30.5488C24.8006 30.0839 24.8436 29.6277 24.8436 29.18C24.8436 28.5258 24.7662 27.9662 24.6112 27.5014C24.5079 27.0882 24.3271 26.7697 24.0689 26.5459C23.8279 26.3048 23.5266 26.1843 23.165 26.1843C22.8035 26.1843 22.4936 26.3048 22.2353 26.5459C21.9943 26.7869 21.8221 27.1312 21.7188 27.5789C21.5811 28.0265 21.5122 28.543 21.5122 29.1284C21.5122 29.6621 21.5639 30.1528 21.6672 30.6004C21.7532 31.0825 21.9254 31.4612 22.1837 31.7367C22.4591 31.995 22.7862 32.1241 23.165 32.1241C23.561 32.1241 23.8967 31.9864 24.1722 31.7109C24.4477 31.4354 24.6284 31.048 24.7145 30.5488ZM39.1403 25.2546C39.2264 25.2546 39.2952 25.289 39.3469 25.3579C39.4157 25.4096 39.4502 25.4784 39.4502 25.5645V27.2173C39.4502 27.3034 39.4157 27.3809 39.3469 27.4497C39.2952 27.5014 39.2264 27.5272 39.1403 27.5272H35.7314C35.6453 27.5272 35.6022 27.5703 35.6022 27.6563V31.0653C35.6022 31.1513 35.5678 31.2288 35.4989 31.2977C35.4473 31.3493 35.3784 31.3752 35.2923 31.3752H33.6395C33.5534 31.3752 33.476 31.3493 33.4071 31.2977C33.3554 31.2288 33.3296 31.1513 33.3296 31.0653V27.6563C33.3296 27.5703 33.2866 27.5272 33.2005 27.5272H29.7916C29.7055 27.5272 29.628 27.5014 29.5592 27.4497C29.5075 27.3809 29.4817 27.3034 29.4817 27.2173V25.5645C29.4817 25.4784 29.5075 25.4096 29.5592 25.3579C29.628 25.289 29.7055 25.2546 29.7916 25.2546H33.2005C33.2866 25.2546 33.3296 25.2116 33.3296 25.1255V21.7166C33.3296 21.6305 33.3554 21.5616 33.4071 21.51C33.476 21.4411 33.5534 21.4067 33.6395 21.4067H35.2923C35.3784 21.4067 35.4473 21.4411 35.4989 21.51C35.5678 21.5616 35.6022 21.6305 35.6022 21.7166V25.1255C35.6022 25.2116 35.6453 25.2546 35.7314 25.2546H39.1403Z" fill="white"/>
</g>
<defs>
<filter id="filter0_d_470_13005" x="8.43725" y="13.7913" width="33.3339" height="23.2362" filterUnits="userSpaceOnUse" color-interpolation-filters="sRGB">
<feFlood flood-opacity="0" result="BackgroundImageFix"/>
<feColorMatrix in="SourceAlpha" type="matrix" values="0 0 0 0 0 0 0 0 0 0 0 0 0 0 0 0 0 0 127 0" result="hardAlpha"/>
<feOffset/>
<feGaussianBlur stdDeviation="1.16049"/>
<feComposite in2="hardAlpha" operator="out"/>
<feColorMatrix type="matrix" values="0 0 0 0 0 0 0 0 0 0 0 0 0 0 0 0 0 0 0.25 0"/>
<feBlend mode="normal" in2="BackgroundImageFix" result="effect1_dropShadow_470_13005"/>
<feBlend mode="normal" in="SourceGraphic" in2="effect1_dropShadow_470_13005" result="shape"/>
</filter>
</defs>
</svg>
