<svg width="72" height="66" viewBox="0 0 72 66" fill="none" xmlns="http://www.w3.org/2000/svg">
<path d="M58.1638 36.2402V40.224H42.3238V36.2402H58.1638ZM52.4183 29.9709V46.795H48.0853V29.9709H52.4183Z" fill="#A50000"/>
<path d="M40.7851 42.3719C40.7851 43.8215 40.4465 45.0437 39.7693 46.0383C39.0921 47.0224 38.1609 47.7683 36.9759 48.2762C35.8013 48.7735 34.4681 49.0222 32.9762 49.0222C31.4842 49.0222 30.1457 48.7735 28.9606 48.2762C27.7755 47.7683 26.8391 47.0224 26.1513 46.0383C25.4635 45.0437 25.1196 43.8215 25.1196 42.3719C25.1196 41.3984 25.3154 40.5202 25.7069 39.7372C26.0984 38.9436 26.6433 38.2664 27.3417 37.7056C28.0506 37.1342 28.8812 36.7004 29.8335 36.4041C30.7859 36.0973 31.8228 35.9438 32.9444 35.9438C34.4469 35.9438 35.7908 36.2084 36.9759 36.7374C38.1609 37.2665 39.0921 38.0125 39.7693 38.9753C40.4465 39.9382 40.7851 41.0704 40.7851 42.3719ZM36.1823 42.0704C36.1823 41.3614 36.0447 40.753 35.7696 40.2451C35.5051 39.7266 35.1294 39.3298 34.6427 39.0547C34.156 38.7796 33.5899 38.642 32.9444 38.642C32.299 38.642 31.7329 38.7796 31.2461 39.0547C30.7594 39.3298 30.3785 39.7266 30.1034 40.2451C29.8388 40.753 29.7066 41.3614 29.7066 42.0704C29.7066 42.7687 29.8388 43.3718 30.1034 43.8797C30.3785 44.3876 30.7594 44.7791 31.2461 45.0542C31.7435 45.3188 32.3201 45.451 32.9762 45.451C33.6322 45.451 34.1983 45.3188 34.6744 45.0542C35.1612 44.7791 35.5315 44.3876 35.7855 43.8797C36.05 43.3718 36.1823 42.7687 36.1823 42.0704ZM40.2931 31.7219C40.2931 32.8965 39.9809 33.9387 39.3566 34.8487C38.7323 35.7481 37.8647 36.4517 36.7536 36.9596C35.6532 37.4675 34.394 37.7215 32.9762 37.7215C31.5477 37.7215 30.278 37.4675 29.1669 36.9596C28.0559 36.4517 27.1882 35.7481 26.564 34.8487C25.9397 33.9387 25.6275 32.8965 25.6275 31.7219C25.6275 30.3252 25.9397 29.1507 26.564 28.1984C27.1988 27.2355 28.0665 26.5054 29.1669 26.0081C30.278 25.5108 31.5371 25.2621 32.9444 25.2621C34.3729 25.2621 35.6373 25.5108 36.7378 26.0081C37.8488 26.5054 38.7165 27.2355 39.3408 28.1984C39.9756 29.1507 40.2931 30.3252 40.2931 31.7219ZM35.722 31.9283C35.722 31.304 35.6109 30.7643 35.3887 30.3093C35.1665 29.8438 34.849 29.484 34.4364 29.2301C34.0343 28.9761 33.537 28.8491 32.9444 28.8491C32.373 28.8491 31.881 28.9708 31.4683 29.2142C31.0663 29.4576 30.7541 29.812 30.5319 30.2776C30.3203 30.7326 30.2145 31.2828 30.2145 31.9283C30.2145 32.5526 30.3203 33.1028 30.5319 33.5789C30.7541 34.0445 31.0715 34.4096 31.4842 34.6741C31.8969 34.9386 32.3942 35.0709 32.9762 35.0709C33.5581 35.0709 34.0502 34.9386 34.4522 34.6741C34.8649 34.4096 35.1771 34.0445 35.3887 33.5789C35.6109 33.1028 35.722 32.5526 35.722 31.9283Z" fill="#A50000"/>
<path d="M23.2176 25.5478V48.7048H18.6465V30.8173L13.1549 32.5632V28.9603L22.7256 25.5478H23.2176Z" fill="#A50000"/>
<path fill-rule="evenodd" clip-rule="evenodd" d="M58.1082 45.8682L65.3576 58.4245L6.64232 58.4245L13.1548 47.1444V33.8795L0.89845 55.1082C-1.65439 59.5299 1.53665 65.0569 6.64232 65.0569H65.3576C70.4633 65.0569 73.6543 59.5299 71.1015 55.1082L58.1082 32.6033V45.8682ZM44.5094 22.3144H52.1679L41.7438 4.25932C39.191 -0.162322 32.8089 -0.16233 30.2561 4.25931L19.832 22.3144H27.4905L36 7.57555L44.5094 22.3144Z" fill="#A50000"/>
</svg>
