<svg width="53" height="48" viewBox="0 0 53 48" fill="none" xmlns="http://www.w3.org/2000/svg">
<path d="M15.8237 13.927C16.3816 13.927 16.9496 13.9574 17.5277 14.0183V14.0487L17.5582 14.0183V31.8952C18.3696 32.2197 18.9427 32.5646 19.2774 32.9297L18.9579 35.5162H10.8638L10.5443 32.9297C10.9298 32.4733 11.7716 32.0777 13.0699 31.743V18.0957C11.9035 17.974 10.9703 17.7559 10.2705 17.4415V15.0833C12.0049 14.3124 13.856 13.927 15.8237 13.927ZM21.9783 19.4346C21.9783 17.6089 22.5615 16.2091 23.7279 15.2354C24.9045 14.2516 26.5679 13.7596 28.7182 13.7596C30.8685 13.7596 32.4711 14.1907 33.526 15.0528C34.591 15.915 35.1235 17.264 35.1235 19.0999C35.1235 19.9113 34.8953 20.7481 34.4388 21.6102C33.9824 22.4724 33.4296 23.1925 32.7805 23.7707C33.9063 24.5213 34.7482 25.2769 35.306 26.0376C35.8639 26.7882 36.1428 27.7974 36.1428 29.0653C36.1428 31.1446 35.4531 32.7827 34.0737 33.9795C32.6942 35.1663 30.7772 35.7596 28.3226 35.7596C25.8579 35.7596 24.0119 35.2525 22.7846 34.2382C21.5573 33.2239 20.9437 31.6568 20.9437 29.5369C20.9437 28.4111 21.2327 27.3765 21.8109 26.4332C22.3992 25.4899 23.1903 24.714 24.1843 24.1054C23.4338 23.4461 22.8759 22.7767 22.5108 22.0971C22.1558 21.4074 21.9783 20.5199 21.9783 19.4346ZM29.768 22.4318C30.7316 19.3585 30.9801 18.1414 30.5135 18.7804C30.0571 17.3096 29.3978 16.5743 28.5356 16.5743C27.6735 16.5743 27.0193 16.7822 26.573 17.1981C26.1673 17.5734 25.9492 18.0602 25.9188 18.6587C25.8883 19.2469 25.9593 19.7389 26.1318 20.1345C26.2839 20.4793 26.5273 20.7684 26.8621 21.0017C27.1968 21.235 27.4909 21.4226 27.7445 21.5646C28.0488 21.737 28.3936 21.8942 28.7791 22.0362C29.1747 22.1681 29.5043 22.3 29.768 22.4318ZM25.4928 29.1566C25.4928 31.4692 26.5121 32.6255 28.5509 32.6255C30.5794 32.6255 31.5937 31.6467 31.5937 29.6891C31.5937 28.6139 31.2032 27.7721 30.4222 27.1635C29.8035 26.7071 29.1493 26.3419 28.4596 26.0681C28.1147 25.9362 27.8358 25.8297 27.6228 25.7486C27.4098 25.6573 27.2627 25.5913 27.1816 25.5508C26.0557 26.5042 25.4928 27.7061 25.4928 29.1566Z" fill="black" fill-opacity="0.8"/>
<path fill-rule="evenodd" clip-rule="evenodd" d="M41.7709 34.4516C38.1968 40.477 31.6265 44.5161 24.1129 44.5161C12.7821 44.5161 3.59673 35.3307 3.59673 24C3.59673 12.6693 12.7821 3.48387 24.1129 3.48387C32.0997 3.48387 39.0205 8.04768 42.4099 14.7097H46.2486C42.6175 6.0683 34.0738 0 24.1129 0C10.858 0 0.112854 10.7452 0.112854 24C0.112854 37.2548 10.858 48 24.1129 48C33.6213 48 41.8383 42.4705 45.7237 34.4516H41.7709Z" fill="black" fill-opacity="0.8"/>
<path d="M46.3809 20.5808V23.289H51.6299L51.9342 25.2212C51.3053 25.9413 50.3722 26.3014 49.1347 26.3014H46.3809V31.5047L44.2053 31.8242C43.475 31.1649 43.1098 30.2318 43.1098 29.0248V26.3014H37.9369L37.6327 24.3692C38.2717 23.649 39.2048 23.289 40.4321 23.289H43.1098V18.0856L45.3007 17.7661C46.0208 18.395 46.3809 19.3332 46.3809 20.5808Z" fill="black" fill-opacity="0.8"/>
</svg>
