<svg width="51" height="34" viewBox="0 0 51 34" fill="none" xmlns="http://www.w3.org/2000/svg">
<rect x="2.2218" y="1.5" width="46.5564" height="30.1251" rx="7.4046" stroke="#FF0000" stroke-width="3"/>
<path d="M10.41 27.7824V9.18956H7.84546V5.34277H14.8979V27.7824H10.41Z" fill="white"/>
<path d="M27.4691 27.7824H21.5707C20.4166 27.2908 19.4443 26.4787 18.6535 25.3461C17.8628 24.2134 17.4674 22.9204 17.4674 21.4672C17.4674 19.1164 18.3757 17.3426 20.1922 16.1458V16.0176C18.739 14.7781 18.0124 13.2287 18.0124 11.3694C18.0124 9.95892 18.4078 8.7194 19.1985 7.65085C20.0106 6.56092 20.9723 5.79157 22.0836 5.34277H26.9241C28.0354 5.79157 28.9757 6.53955 29.7451 7.58673C30.5358 8.63391 30.9312 9.86275 30.9312 11.2732C30.9312 13.1325 30.1939 14.6926 28.7193 15.9535V16.0817C30.5572 17.2999 31.4761 19.0523 31.4761 21.339C31.4761 22.7708 31.0701 24.0852 30.258 25.2819C29.4673 26.4574 28.5376 27.2908 27.4691 27.7824ZM23.0453 18.2295C22.2973 18.8493 21.9233 19.7575 21.9233 20.9543C21.9233 21.6168 22.0408 22.2473 22.2759 22.8456C22.5324 23.444 22.8102 23.8501 23.1094 24.0638H25.8342C26.1334 23.8501 26.4005 23.444 26.6356 22.8456C26.8921 22.2473 27.0203 21.6168 27.0203 20.9543C27.0203 19.7575 26.6463 18.8493 25.8983 18.2295H23.0453ZM23.2376 9.18956C22.9384 9.40327 22.6713 9.75589 22.4362 10.2474C22.2011 10.7176 22.0836 11.2412 22.0836 11.8182C22.0836 12.8867 22.4576 13.7736 23.2056 14.4789H25.738C26.486 13.7736 26.86 12.8867 26.86 11.8182C26.86 11.2412 26.7425 10.7176 26.5074 10.2474C26.2723 9.75589 26.0052 9.40327 25.706 9.18956H23.2376Z" fill="white"/>
<path d="M32.4476 18.486V15.3765H43.1545V18.486H32.4476ZM36.2303 22.4289V11.4015H39.3077V22.4289H36.2303Z" fill="white"/>
</svg>
