<svg width="61" height="56" viewBox="0 0 61 56" fill="none" xmlns="http://www.w3.org/2000/svg">
<rect width="60.7743" height="56" rx="4" fill="#9E0A0A" fill-opacity="0.9"/>
<path d="M19.7109 17.927C20.2687 17.927 20.8367 17.9574 21.4149 18.0183V18.0487L21.4453 18.0183V35.8952C22.2567 36.2197 22.8298 36.5646 23.1645 36.9297L22.845 39.5162H14.751L14.4315 36.9297C14.8169 36.4733 15.6588 36.0777 16.9571 35.743V22.0957C15.7906 21.974 14.8575 21.7559 14.1576 21.4415V19.0833C15.8921 18.3124 17.7431 17.927 19.7109 17.927ZM25.8654 23.4346C25.8654 21.6089 26.4486 20.2091 27.615 19.2354C28.7916 18.2516 30.4551 17.7596 32.6054 17.7596C34.7557 17.7596 36.3582 18.1907 37.4131 19.0528C38.4781 19.915 39.0106 21.264 39.0106 23.0999C39.0106 23.9113 38.7824 24.7481 38.326 25.6102C37.8695 26.4724 37.3168 27.1925 36.6676 27.7707C37.7935 28.5213 38.6353 29.2769 39.1932 30.0376C39.7511 30.7882 40.03 31.7974 40.03 33.0653C40.03 35.1446 39.3403 36.7827 37.9608 37.9795C36.5814 39.1663 34.6644 39.7596 32.2098 39.7596C29.7451 39.7596 27.8991 39.2525 26.6718 38.2382C25.4445 37.2239 24.8308 35.6568 24.8308 33.5369C24.8308 32.4111 25.1199 31.3765 25.698 30.4332C26.2863 29.4899 27.0775 28.714 28.0715 28.1054C27.3209 27.4461 26.763 26.7767 26.3979 26.0971C26.0429 25.4074 25.8654 24.5199 25.8654 23.4346ZM33.6552 26.4318C34.6187 23.3585 34.8672 22.1414 34.4007 22.7804C33.9442 21.3096 33.2849 20.5743 32.4228 20.5743C31.5606 20.5743 30.9064 20.7822 30.4601 21.1981C30.0544 21.5734 29.8363 22.0602 29.8059 22.6587C29.7755 23.2469 29.8465 23.7389 30.0189 24.1345C30.1711 24.4793 30.4145 24.7684 30.7492 25.0017C31.0839 25.235 31.3781 25.4226 31.6316 25.5646C31.9359 25.737 32.2808 25.8942 32.6662 26.0362C33.0618 26.1681 33.3914 26.3 33.6552 26.4318ZM29.3799 33.1566C29.3799 35.4692 30.3993 36.6255 32.438 36.6255C34.4666 36.6255 35.4809 35.6467 35.4809 33.6891C35.4809 32.6139 35.0904 31.7721 34.3094 31.1635C33.6907 30.7071 33.0364 30.3419 32.3467 30.0681C32.0019 29.9362 31.7229 29.8297 31.5099 29.7486C31.2969 29.6573 31.1499 29.5913 31.0687 29.5508C29.9429 30.5042 29.3799 31.7061 29.3799 33.1566Z" fill="white" fill-opacity="0.9"/>
<path fill-rule="evenodd" clip-rule="evenodd" d="M45.658 38.4516C42.084 44.477 35.5137 48.5161 28 48.5161C16.6693 48.5161 7.48387 39.3307 7.48387 28C7.48387 16.6693 16.6693 7.48387 28 7.48387C35.9868 7.48387 42.9077 12.0477 46.2971 18.7097H50.1357C46.5046 10.0683 37.961 4 28 4C14.7452 4 4 14.7452 4 28C4 41.2548 14.7452 52 28 52C37.5085 52 45.7255 46.4705 49.6108 38.4516H45.658Z" fill="white" fill-opacity="0.9"/>
<path d="M50.2681 24.5808V27.289H55.517L55.8213 29.2212C55.1925 29.9413 54.2593 30.3014 53.0219 30.3014H50.2681V35.5047L48.0924 35.8242C47.3621 35.1649 46.997 34.2318 46.997 33.0248V30.3014H41.8241L41.5198 28.3692C42.1588 27.649 43.0919 27.289 44.3192 27.289H46.997V22.0856L49.1878 21.7661C49.908 22.395 50.2681 23.3332 50.2681 24.5808Z" fill="white" fill-opacity="0.9"/>
</svg>
