<svg width="62" height="171" viewBox="0 0 62 171" fill="none" xmlns="http://www.w3.org/2000/svg">
<rect x="5.48523" y="1.75" width="50.44" height="47.5" rx="23.75" stroke="white" stroke-width="2.5"/>
<path d="M13.4915 21.855V18.9525L20.399 17.49V33.51H17.2715V20.865L13.4915 21.855Z" fill="white"/>
<path d="M24.4098 21.4275C24.4098 20.5875 24.6348 19.86 25.0848 19.245C25.5348 18.63 26.1348 18.1575 26.8848 17.8275C27.6498 17.4825 28.4973 17.31 29.4273 17.31C30.3423 17.31 31.1748 17.4825 31.9248 17.8275C32.6898 18.1575 33.2973 18.63 33.7473 19.245C34.2123 19.86 34.4448 20.5875 34.4448 21.4275C34.4448 22.1175 34.3023 22.725 34.0173 23.25C33.7473 23.76 33.3723 24.1875 32.8923 24.5325C32.4273 24.8775 31.8948 25.14 31.2948 25.32C30.6948 25.5 30.0723 25.59 29.4273 25.59C28.7823 25.59 28.1598 25.5 27.5598 25.32C26.9598 25.14 26.4198 24.8775 25.9398 24.5325C25.4748 24.1875 25.0998 23.76 24.8148 23.25C24.5448 22.725 24.4098 22.1175 24.4098 21.4275ZM27.4248 21.7425C27.4248 22.1475 27.5148 22.5 27.6948 22.8C27.8748 23.1 28.1148 23.34 28.4148 23.52C28.7148 23.685 29.0523 23.7675 29.4273 23.7675C29.8023 23.7675 30.1398 23.685 30.4398 23.52C30.7398 23.34 30.9723 23.1 31.1373 22.8C31.3173 22.5 31.4073 22.1475 31.4073 21.7425C31.4073 21.3525 31.3248 21 31.1598 20.685C30.9948 20.37 30.7623 20.13 30.4623 19.965C30.1623 19.8 29.8173 19.7175 29.4273 19.7175C29.0373 19.7175 28.6923 19.8 28.3923 19.965C28.0923 20.13 27.8523 20.37 27.6723 20.685C27.5073 21 27.4248 21.3525 27.4248 21.7425ZM23.8473 29.1C23.8473 28.305 24.0123 27.6225 24.3423 27.0525C24.6723 26.4675 25.1073 25.9875 25.6473 25.6125C26.2023 25.2375 26.8098 24.96 27.4698 24.78C28.1298 24.6 28.7823 24.51 29.4273 24.51C30.0723 24.51 30.7248 24.6 31.3848 24.78C32.0448 24.96 32.6448 25.2375 33.1848 25.6125C33.7398 25.9875 34.1823 26.4675 34.5123 27.0525C34.8423 27.6225 35.0073 28.305 35.0073 29.1C35.0073 29.79 34.8573 30.42 34.5573 30.99C34.2573 31.545 33.8448 32.025 33.3198 32.43C32.8098 32.835 32.2173 33.15 31.5423 33.375C30.8823 33.585 30.1773 33.69 29.4273 33.69C28.6773 33.69 27.9648 33.585 27.2898 33.375C26.6298 33.15 26.0373 32.835 25.5123 32.43C24.9873 32.025 24.5748 31.545 24.2748 30.99C23.9898 30.42 23.8473 29.79 23.8473 29.1ZM27.0198 28.6275C27.0198 29.1525 27.1248 29.595 27.3348 29.955C27.5598 30.3 27.8523 30.57 28.2123 30.765C28.5873 30.945 28.9923 31.035 29.4273 31.035C29.8473 31.035 30.2373 30.945 30.5973 30.765C30.9723 30.57 31.2723 30.3 31.4973 29.955C31.7223 29.595 31.8348 29.1525 31.8348 28.6275C31.8348 28.1925 31.7223 27.795 31.4973 27.435C31.2723 27.075 30.9723 26.79 30.5973 26.58C30.2373 26.37 29.8473 26.265 29.4273 26.265C28.9923 26.265 28.5873 26.37 28.2123 26.58C27.8523 26.79 27.5598 27.075 27.3348 27.435C27.1248 27.795 27.0198 28.1925 27.0198 28.6275Z" fill="white"/>
<path d="M37.5935 26.7269V24.2731H47.9187V26.7269H37.5935ZM41.4409 20.3276H44.0713V30.6724H41.4409V20.3276Z" fill="white"/>
<g clip-path="url(#clip0_463_9544)">
<path d="M49.1137 123.074H12.2967C9.36757 123.074 6.99231 125.449 6.99231 128.379V165.196C6.99231 168.125 9.36757 170.5 12.2967 170.5H49.1137C52.0429 170.5 54.4181 168.125 54.4181 165.196V128.379C54.4181 125.449 52.0429 123.074 49.1137 123.074ZM33.0743 146.829L33.8644 153.983C33.9907 155.13 33.0934 156.132 31.9397 156.132H29.5099C28.3429 156.132 27.4408 155.107 27.5891 153.949L28.4921 146.908C26.8477 146.094 25.716 144.4 25.7132 142.442C25.7084 139.722 27.9153 137.479 30.6359 137.441C33.4253 137.403 35.6973 139.653 35.6973 142.433C35.6973 144.333 34.6354 145.985 33.0743 146.828V146.829Z" fill="white"/>
<path d="M19.0704 108.765C19.0704 105.657 20.2805 102.736 22.4779 100.538C24.6752 98.3411 27.5967 97.1309 30.7047 97.1309C33.8127 97.1309 36.7342 98.3411 38.9315 100.538C41.1289 102.736 42.339 105.657 42.339 108.765V119.798H46.969V108.765C46.969 106.571 46.5385 104.44 45.69 102.433C44.8702 100.496 43.6983 98.7572 42.2051 97.2639C40.7118 95.7706 38.9727 94.5988 37.0355 93.779C35.0305 92.9305 32.9001 92.5 30.7057 92.5C28.5112 92.5 26.3808 92.9305 24.3739 93.779C22.4367 94.5978 20.6976 95.7706 19.2043 97.2639C17.7111 98.7572 16.5392 100.496 15.7194 102.433C14.8709 104.44 14.4404 106.571 14.4404 108.765V119.798H19.0704V108.765Z" fill="white"/>
</g>
<defs>
<clipPath id="clip0_463_9544">
<rect width="47.4258" height="78" fill="white" transform="translate(6.99231 92.5)"/>
</clipPath>
</defs>
</svg>
